<svg width="14" height="14" viewBox="0 0 14 14" fill="none" xmlns="http://www.w3.org/2000/svg">
<path d="M7.77295 7.00075L13.8393 0.934335C14.0529 0.720753 14.0529 0.374473 13.8393 0.160919C13.6258 -0.0526356 13.2795 -0.052663 13.0659 0.160919L6.9995 6.22734L0.933114 0.160919C0.719533 -0.052663 0.373252 -0.052663 0.159698 0.160919C-0.0538563 0.3745 -0.0538837 0.720781 0.159698 0.934335L6.22609 7.00073L0.159698 13.0671C-0.0538837 13.2807 -0.0538837 13.627 0.159698 13.8406C0.266475 13.9473 0.406447 14.0007 0.54642 14.0007C0.686392 14.0007 0.826337 13.9473 0.933142 13.8406L6.9995 7.77417L13.0659 13.8406C13.1727 13.9473 13.3126 14.0007 13.4526 14.0007C13.5926 14.0007 13.7325 13.9473 13.8393 13.8406C14.0529 13.627 14.0529 13.2807 13.8393 13.0671L7.77295 7.00075Z" fill="#4D4C4C"/>
</svg>
