<svg width="49" height="49" viewBox="0 0 49 49" fill="none" xmlns="http://www.w3.org/2000/svg">
<circle cx="24.5" cy="24.5" r="23.5" stroke="white" stroke-width="2"/>
<path d="M34.1924 28.8076C32.7765 27.3917 31.0912 26.3435 29.2524 25.709C31.2218 24.3526 32.5156 22.0825 32.5156 19.5156C32.5156 15.3715 29.1441 12 25 12C20.8559 12 17.4844 15.3715 17.4844 19.5156C17.4844 22.0825 18.7782 24.3526 20.7477 25.709C18.9089 26.3435 17.2236 27.3917 15.8076 28.8076C13.3523 31.263 12 34.5276 12 38H14.0312C14.0312 31.9518 18.9518 27.0312 25 27.0312C31.0482 27.0312 35.9688 31.9518 35.9688 38H38C38 34.5276 36.6477 31.263 34.1924 28.8076ZM25 25C21.9759 25 19.5156 22.5398 19.5156 19.5156C19.5156 16.4915 21.9759 14.0312 25 14.0312C28.0241 14.0312 30.4844 16.4915 30.4844 19.5156C30.4844 22.5398 28.0241 25 25 25Z" fill="white"/>
</svg>
