<svg width="15" height="13" viewBox="0 0 15 13" fill="none" xmlns="http://www.w3.org/2000/svg">
<path d="M14.0312 5.90612H2.18623L6.72189 1.586C6.95939 1.35978 6.96859 0.983933 6.74237 0.746433C6.51645 0.509229 6.14061 0.499729 5.90281 0.725948L0.722937 5.66001C0.498797 5.88445 0.375 6.18251 0.375 6.49987C0.375 6.81693 0.498797 7.11529 0.733328 7.34953L5.90311 12.2735C6.018 12.383 6.16525 12.4374 6.3125 12.4374C6.46925 12.4374 6.626 12.3756 6.74267 12.253C6.96889 12.0155 6.95969 11.64 6.72219 11.4137L2.16753 7.09362H14.0312C14.359 7.09362 14.625 6.82762 14.625 6.49987C14.625 6.17212 14.359 5.90612 14.0312 5.90612Z" fill="white"/>
</svg>
