<svg width="21" height="21" viewBox="0 0 21 21" fill="none" xmlns="http://www.w3.org/2000/svg">
<path d="M19.8711 1.58125e-06H1.14853C0.818316 -0.000623041 0.515583 0.183848 0.364634 0.477627C0.211602 0.775362 0.238461 1.13389 0.433966 1.40581L7.29312 11.0683C7.29541 11.0716 7.29791 11.0747 7.3002 11.078C7.54942 11.4145 7.68413 11.822 7.68496 12.2409V20.1186C7.68351 20.352 7.77512 20.576 7.9396 20.7415C8.10408 20.907 8.3277 20.9999 8.56089 20.9999C8.67957 20.9999 8.79679 20.9762 8.9063 20.9308L12.7606 19.4611C13.106 19.3557 13.3353 19.0299 13.3353 18.6374V12.2409C13.3359 11.8222 13.4708 11.4145 13.7198 11.078C13.7221 11.0747 13.7246 11.0716 13.7269 11.0683L20.5859 1.40539C20.7814 1.13369 20.8082 0.775362 20.6552 0.477627C20.5042 0.183848 20.2015 -0.000623041 19.8711 1.58125e-06ZM12.8604 10.4466C12.4773 10.9664 12.2701 11.595 12.2688 12.2409V18.5079L8.75098 19.8492V12.2409C8.74973 11.595 8.54257 10.9664 8.15926 10.4466L1.50019 1.06602H19.5196L12.8604 10.4466Z" fill="#534D4D"/>
</svg>
