<svg width="98" height="98" viewBox="0 0 98 98" fill="none" xmlns="http://www.w3.org/2000/svg">
<path d="M41.1269 87.5458C40.4165 85.021 38.4791 83.0252 35.9761 82.2386L27.5044 79.492V75.9525C30.5879 74.0494 32.7338 70.941 33.4201 67.382L33.8784 65.8072C35.9597 65.0338 37.1315 62.8241 36.604 60.6673C36.3418 59.5624 35.566 58.6497 34.5172 58.2132V52.7099C34.5172 45.0754 28.3284 38.8866 20.6939 38.8866C13.0594 38.8866 6.87064 45.0754 6.87064 52.7099V58.2124C5.81946 58.6482 5.04217 59.5616 4.77918 60.668C4.25164 62.8249 5.4242 65.0346 7.50555 65.8072L7.96384 67.382C8.6501 70.941 10.796 74.0494 13.8795 75.9525V79.492L5.40786 82.2386C2.9048 83.0252 0.967394 85.0218 0.257012 87.5474C0.229779 87.6439 0.205659 87.7419 0.182317 87.8399C0.0570466 88.3939 -0.00442119 88.9612 0.000247256 89.5291V95.8697C0.000247256 96.5295 0.535562 97.0648 1.19537 97.0648H40.1893C40.8491 97.0648 41.3845 96.5295 41.3845 95.8697V89.5291C41.3891 88.9604 41.3277 88.3932 41.2016 87.8392C41.1783 87.7411 41.1534 87.6439 41.1269 87.5458ZM21.679 53.3324C22.769 54.4481 25.5086 56.7862 30.0783 57.8086C27.0656 57.4927 22.4267 56.58 18.3885 53.9774C19.5416 53.8039 20.6387 53.5891 21.679 53.3324ZM9.26244 52.7099C9.26244 46.3958 14.3814 41.2769 20.6962 41.2769C27.0103 41.2769 32.1293 46.3958 32.1293 52.7099V55.7483C28.3548 55.2402 25.7926 53.6732 24.3688 52.5317C26.3038 51.8766 28.1237 50.9211 29.7624 49.7003C30.1109 49.4443 30.2938 49.0195 30.2409 48.59C30.1872 48.1605 29.9055 47.7932 29.5048 47.6306C29.1041 47.4672 28.6458 47.5341 28.3081 47.8041C22.1147 52.5543 11.0007 52.0524 10.8894 52.047C10.5719 52.0306 10.2607 52.1419 10.0257 52.3551C9.78998 52.5691 9.64915 52.8678 9.63514 53.1861L9.42584 57.7713C9.42273 57.9043 9.36437 58.0296 9.26478 58.1175L9.26244 52.7099ZM10.3027 66.8817C10.2957 66.8444 10.2864 66.8063 10.2755 66.7697L9.64837 64.6113C9.55578 64.1227 9.16985 63.743 8.68044 63.6574C8.14124 63.5617 7.66583 63.2466 7.36705 62.7883C7.06827 62.3292 6.97179 61.7675 7.10251 61.2353C7.1881 60.8602 7.45575 60.5521 7.81522 60.4144C8.68511 60.777 9.67716 60.6922 10.4731 60.188C11.2691 59.683 11.7686 58.8217 11.8122 57.881L11.9678 54.4582H11.9717C12.6914 54.4582 13.6959 54.438 14.8871 54.3563C22.3792 60.7007 32.9167 60.3731 33.3687 60.356C33.375 60.356 33.3804 60.3545 33.3859 60.3545C33.8301 60.4502 34.1787 60.7933 34.2822 61.2353C34.4121 61.7675 34.3164 62.3292 34.0177 62.7875C33.7181 63.2466 33.2435 63.5609 32.7043 63.6574C32.239 63.7445 31.8671 64.0947 31.7527 64.5537L31.1092 66.7689C31.0983 66.8063 31.089 66.8436 31.082 66.8817C30.1421 71.8801 25.7771 75.5005 20.6916 75.5005C15.6053 75.5005 11.2403 71.8801 10.3004 66.8817H10.3027ZM20.6924 77.8923C22.2003 77.893 23.6965 77.6301 25.1141 77.115V79.6289C22.3037 80.9003 19.081 80.9003 16.2706 79.6289V77.1134C17.6874 77.6293 19.1844 77.8923 20.6924 77.8923ZM38.9942 94.6753H2.39049V89.5291C2.3866 89.144 2.42628 88.7596 2.51031 88.3838C2.52665 88.3153 2.54377 88.2461 2.56245 88.1792C3.06119 86.4301 4.40882 85.0513 6.14548 84.5121L14.9595 81.6543C18.5791 83.4127 22.8048 83.4127 26.4244 81.6543L35.2384 84.5121C36.9751 85.0513 38.322 86.4293 38.8215 88.1776C38.8402 88.2461 38.8573 88.3146 38.8736 88.383C38.9569 88.7589 38.9973 89.1432 38.9927 89.5284L38.9942 94.6753Z" fill="black"/>
<path d="M81.3073 90.6004H80.0897C79.4298 90.6004 78.8945 91.1349 78.8945 91.7955C78.8945 92.4553 79.4298 92.9907 80.0897 92.9907H81.3073C81.9671 92.9907 82.5025 92.4553 82.5025 91.7955C82.5025 91.1349 81.9671 90.6004 81.3073 90.6004Z" fill="black"/>
<path d="M93.0517 81.4449L87.7561 79.6507C91.4076 77.7794 93.3621 73.7023 92.5335 69.6836L91.5243 64.7918C92.8937 63.82 93.531 62.1106 93.1318 60.4797C92.8891 59.4597 92.181 58.6124 91.2201 58.193L91.2372 53.3829C91.2637 48.3939 88.6229 43.7714 84.3116 41.2605C80.0003 38.7505 74.6767 38.7349 70.3506 41.2193C66.0253 43.7045 63.3565 48.3114 63.3534 53.3004L63.3666 57.6623V57.6903L63.3783 58.2C62.4259 58.6225 61.7248 59.4651 61.4836 60.479C61.0503 62.2537 61.8447 64.1009 63.4319 65.0066L62.2454 69.4642C61.1771 73.4743 62.948 77.7008 66.5551 79.7526L61.5646 81.4442C58.6055 82.4455 56.6145 85.2225 56.6152 88.3465V95.8681C56.6152 96.5287 57.1505 97.0632 57.8104 97.0632H96.8051C97.4657 97.0632 98.0002 96.5287 98.0002 95.8681V88.348C98.0018 85.224 96.0107 82.4471 93.0517 81.4449ZM71.8748 80.4755L76.1013 84.6903V87.3544L69.7631 81.1905L71.8748 80.4755ZM76.1994 77.6129H78.4177C79.3661 77.6121 80.3107 77.4908 81.2288 77.2527V78.6089L77.3089 82.5187L73.3882 78.6089V77.2535C74.3063 77.4915 75.2509 77.6121 76.1994 77.6129ZM78.4916 84.7144L82.743 80.4755L84.8539 81.1905L78.4908 87.3785L78.4916 84.7144ZM88.8586 75.7308C87.6106 77.2978 85.7292 78.226 83.7272 78.2626V78.2844L83.6191 78.2478V76.3478C86.561 74.8119 88.8267 72.238 89.9767 69.1249L90.1915 70.166C90.5992 72.1275 90.1098 74.1676 88.8579 75.7315L88.8586 75.7308ZM77.2964 41.7453C80.373 41.7453 83.3226 42.9723 85.4911 45.1548C87.6596 47.3373 88.868 50.2947 88.8477 53.3713L88.8337 57.2445C85.7977 57.0119 82.9165 55.8144 80.6095 53.8272C82.4481 52.2594 83.9863 50.3694 85.1472 48.25C85.3651 47.878 85.3651 47.4174 85.1472 47.0455C84.9301 46.6728 84.5294 46.4464 84.0984 46.4526C83.6673 46.4588 83.2728 46.6969 83.0666 47.0751C78.6526 54.8869 72.2864 55.2417 69.2263 55.4137L69.1804 55.416C68.2871 55.4658 67.4507 56.0805 66.9971 57.0204C66.9239 57.1698 66.8018 57.2889 66.6516 57.3589C66.3645 57.4943 66.0237 57.4359 65.7996 57.2118L65.7561 57.1683L65.7444 53.2973C65.7514 46.9202 70.9194 41.7523 77.2964 41.7453ZM63.807 61.0485C63.9089 60.6276 64.273 60.3226 64.7049 60.2953C65.0776 60.2611 65.4121 60.0541 65.6098 59.7359C67.0375 60.0736 68.5081 59.3764 69.1508 58.0584C69.1951 57.9572 69.2636 57.8693 69.35 57.8008H69.3585C71.3372 57.6903 74.9529 57.4873 78.6192 55.2542C81.4545 57.8732 85.1106 59.4278 88.9637 59.6519C89.1489 60.0144 89.506 60.2572 89.9114 60.2961C90.3432 60.3233 90.7073 60.6283 90.8093 61.0493C90.9213 61.506 90.8388 61.9884 90.5821 62.3813C90.3253 62.7751 89.9176 63.0458 89.4546 63.1275C88.8804 63.2357 88.4649 63.7383 88.4657 64.3226C88.4431 67.133 87.3904 69.8376 85.5067 71.9236C83.5802 74.0525 81.0623 75.225 78.4161 75.225H76.197C73.5508 75.225 71.033 74.0525 69.1072 71.9236C67.2212 69.8322 66.1692 67.1206 66.1505 64.3047C66.1505 63.7243 65.7335 63.2271 65.1616 63.1275C64.3485 62.9859 63.7564 62.2786 63.7587 61.4539C63.7587 61.3177 63.7743 61.1816 63.807 61.0485ZM65.5553 75.6919C64.4076 74.061 64.042 72.0061 64.5563 70.0796L64.7391 69.3949C65.9194 72.3913 68.1416 74.8609 70.9979 76.3486V78.2486L70.2588 78.4992C68.3618 78.2774 66.6501 77.2558 65.5553 75.6919ZM59.007 88.348C59.0063 86.248 60.3445 84.3822 62.3333 83.7091L67.2212 82.0526L76.1021 90.6892V94.6745H59.0078L59.007 88.348ZM95.61 94.6745H78.4916V90.7126L87.3974 82.0526L92.2845 83.7091C94.2733 84.3822 95.6108 86.2488 95.61 88.348V94.6745Z" fill="black"/>
<path d="M33.5074 40.688H64.4934C65.154 40.688 65.6885 40.1526 65.6885 39.4928V15.8184L70.2076 19.1089C70.5523 19.3641 71.0082 19.4154 71.4011 19.2419C71.7941 19.0692 72.0641 18.698 72.1076 18.2717C72.152 17.8445 71.9637 17.4267 71.6151 17.1761L65.6885 12.8617V5.35095C65.6885 4.69037 65.154 4.15583 64.4934 4.15583C63.8336 4.15583 63.2983 4.69037 63.2983 5.35095V11.1219L49.7038 1.22482C49.2844 0.91982 48.7164 0.91982 48.297 1.22482L26.3864 17.1769C26.0371 17.4267 25.8488 17.8445 25.8931 18.2717C25.9375 18.6988 26.2075 19.0692 26.6004 19.2427C26.9933 19.4154 27.4485 19.3648 27.794 19.1089L32.3122 15.8192V39.4928C32.3122 40.1526 32.8476 40.688 33.5074 40.688ZM49.0004 3.66876L63.2983 14.0786V38.2977H34.7025V14.0786L49.0004 3.66876Z" fill="black"/>
<path d="M48.9998 25.6688C50.3926 25.661 51.527 26.7837 51.534 28.1757C51.5418 29.5685 50.419 30.7029 49.027 30.7099C49.0177 30.7099 49.0091 30.7091 48.9998 30.7091C48.9912 30.7091 48.9819 30.7099 48.9733 30.7099C47.5923 30.6943 46.4804 29.5716 46.4788 28.1905C46.4788 27.5299 45.9435 26.9954 45.2837 26.9954C44.6231 26.9954 44.0886 27.5299 44.0886 28.1905C44.0917 30.4415 45.6222 32.4038 47.8047 32.9539V34.1179C47.8047 34.7785 48.34 35.313 48.9998 35.313C49.6604 35.313 50.1949 34.7785 50.1949 34.1179V32.9539C52.6007 32.3509 54.1787 30.0493 53.8744 27.5883C53.571 25.1272 51.4795 23.2785 48.9998 23.2785C47.6078 23.2785 46.4788 22.1495 46.4788 20.7568C46.4788 19.364 47.6078 18.235 49.0006 18.2358C50.3926 18.2358 51.5215 19.3648 51.5215 20.7576C51.5215 21.4174 52.0568 21.9527 52.7167 21.9527C53.3765 21.9527 53.9118 21.4174 53.9118 20.7576C53.9087 18.5058 52.3782 16.5435 50.1949 15.9934V14.9983C50.1949 14.3384 49.6604 13.8031 48.9998 13.8031C48.34 13.8031 47.8047 14.3384 47.8047 14.9983V15.9934C45.3997 16.5964 43.8217 18.898 44.1252 21.359C44.4294 23.8201 46.5201 25.6688 48.9998 25.6688Z" fill="black"/>
</svg>
