<svg width="98" height="98" viewBox="0 0 98 98" fill="none" xmlns="http://www.w3.org/2000/svg">
<g clip-path="url(#clip0)">
<path d="M75.2239 43.9286V31.058H85.585C86.0977 31.0588 86.5526 30.7286 86.7112 30.2413C86.8698 29.754 86.6958 29.2198 86.2809 28.9188L78.1752 23.017V9.25882C78.1752 8.60529 77.6456 8.07645 76.9928 8.07645H68.6716C68.0188 8.07645 67.4892 8.60529 67.4892 9.25882V15.2384L46.8685 0.226306C46.4536 -0.0754454 45.8917 -0.0754454 45.4768 0.226306L6.06439 28.9188C5.65025 29.2198 5.47782 29.7533 5.63639 30.2405C5.7942 30.7278 6.24836 31.0573 6.76026 31.0573H17.1222V76.4269C17.1222 77.0797 17.6518 77.6093 18.3045 77.6093H60.6321V96.8167C60.6321 97.2447 60.863 97.6388 61.2356 97.8482C61.6089 98.0568 62.0654 98.0491 62.4303 97.8258L73.8175 90.8748L85.204 97.8266C85.5689 98.0498 86.0253 98.0583 86.3987 97.8489C86.7712 97.6395 87.0022 97.2454 87.0022 96.8174V76.6863C90.6763 73.0776 92.7424 68.1418 92.7355 62.9928C92.7355 52.9296 85.0008 44.6584 75.2239 43.9286ZM69.8539 10.4412H75.8104V21.2965L69.8539 16.9612V10.4412ZM19.4869 75.2445V29.8757C19.4869 29.2229 18.9573 28.6933 18.3045 28.6933H10.3936L46.1726 2.64416L81.9525 28.6933H74.0415C73.388 28.6933 72.8591 29.2229 72.8591 29.8757V43.9002C62.8713 44.4067 54.8996 52.7764 54.8996 62.9921C54.8926 67.466 56.4522 71.8006 59.3081 75.2445H19.4869ZM84.6374 94.7098L74.4333 88.48C74.0554 88.2491 73.5796 88.2491 73.2017 88.48L62.9968 94.7098V78.6631C69.4791 83.2563 78.1552 83.2563 84.6374 78.6631V94.7098ZM73.8175 79.7431C64.6895 79.7431 57.2643 72.2286 57.2643 62.9928C57.2643 53.7571 64.6895 46.2426 73.8175 46.2426C82.9447 46.2426 90.3707 53.7571 90.3707 62.9944C90.3707 72.2309 82.9447 79.7431 73.8175 79.7431Z" fill="black"/>
<path d="M83.6001 58.9685H76.9877L74.9417 52.6017C74.7846 52.1129 74.3297 51.7811 73.8163 51.7811C73.3028 51.7811 72.8479 52.1129 72.6909 52.6017L70.6448 58.9685H64.0325C63.5213 58.9685 63.0679 59.2972 62.9086 59.7829C62.7493 60.2686 62.9201 60.8013 63.332 61.1038L68.6919 65.042L66.6428 71.4196C66.4857 71.9076 66.6612 72.441 67.0777 72.7405C67.4934 73.0407 68.0553 73.0376 68.4687 72.7343L73.8155 68.8062L79.1616 72.7343C79.5749 73.0376 80.1361 73.0407 80.5526 72.7405C80.9682 72.441 81.1437 71.9076 80.9875 71.4196L78.9376 65.042L84.2975 61.1038C84.7101 60.8013 84.881 60.2686 84.7216 59.7829C84.5623 59.2972 84.1089 58.9685 83.5978 58.9685H83.6001ZM76.853 63.641C76.4435 63.942 76.2718 64.4716 76.4273 64.9558L77.6197 68.6668L74.516 66.3868C74.0996 66.0804 73.5322 66.0804 73.1158 66.3868L70.0121 68.6661L71.2044 64.955C71.3599 64.4708 71.1883 63.9412 70.7788 63.6402L67.6388 61.3332H71.5062C72.0196 61.3332 72.4746 61.0022 72.6324 60.5126L73.8163 56.8277L75.0002 60.5126C75.1572 61.0022 75.6122 61.3332 76.1256 61.3332H79.9929L76.853 63.641Z" fill="black"/>
</g>
<defs>
<clipPath id="clip0">
<rect width="98" height="98" fill="white"/>
</clipPath>
</defs>
</svg>
