<svg width="98" height="98" viewBox="0 0 98 98" fill="none" xmlns="http://www.w3.org/2000/svg">
<g clip-path="url(#clip0)">
<path d="M38.4874 48.0002C37.928 47.4557 37.0351 47.4622 36.4832 48.0142C35.9303 48.5661 35.9247 49.459 36.4692 50.0184L36.7071 50.2562L32.4655 52.5875C32.3475 52.6526 32.2388 52.7343 32.1431 52.8291L22.9295 62.0436C20.9011 64.071 20.9011 67.3584 22.9295 69.3849L25.0582 71.5146C27.0856 73.5429 30.373 73.5429 32.4004 71.5146L41.6149 62.3C41.7097 62.2053 41.7915 62.0966 41.8565 61.9786L44.1878 57.7369L44.4257 57.9748C44.9822 58.5323 45.8863 58.5323 46.4438 57.9748C47.0013 57.4173 47.0013 56.5142 46.4438 55.9567L43.476 52.9889L59.1092 37.3502C59.6583 36.7917 59.6546 35.8942 59.1008 35.3404C58.5461 34.7866 57.6486 34.7829 57.0901 35.332L41.4551 50.968L38.4874 48.0002ZM39.4509 60.4241L30.3804 69.4955C29.468 70.4079 27.9878 70.4079 27.0754 69.4955L24.9458 67.3658C24.0333 66.4525 24.0333 64.9732 24.9458 64.0608L34.0172 54.9903L38.8079 52.358L42.0842 55.6333L39.4509 60.4241Z" fill="black"/>
<path d="M53.2689 59.966L37.0188 76.2152C35.0146 78.2203 35.0146 81.4696 37.0188 83.4738C39.023 85.478 42.2723 85.478 44.2765 83.4738L60.5275 67.2246C64.8602 68.7754 69.6984 67.7161 72.9867 64.4957C76.275 61.2761 77.4355 56.4603 75.9749 52.096C75.8178 51.6267 75.4304 51.2727 74.9491 51.1585C74.4678 51.0451 73.9614 51.1891 73.612 51.5385L69.8591 55.2914L66.0356 54.5248L65.3257 50.5043L68.9643 46.8889C69.3155 46.5405 69.4614 46.0341 69.349 45.5519C69.2366 45.0696 68.8826 44.6803 68.4133 44.5224C64.089 43.0515 59.3038 44.1739 56.0852 47.4158C52.8108 50.7087 51.7163 55.5887 53.2689 59.966ZM64.561 46.7459C64.7227 46.7459 64.8853 46.7505 65.047 46.7589L62.7835 49.0074C62.4518 49.3364 62.3032 49.8074 62.384 50.2674L63.394 55.9817C63.4962 56.5597 63.9431 57.0168 64.5192 57.132L70.0468 58.2415C70.5151 58.3353 70.9992 58.1885 71.3365 57.8512L73.7337 55.454C73.8898 58.6484 72.3706 61.6933 69.7253 63.4884C67.079 65.2845 63.6885 65.5725 60.7784 64.2476C60.2367 64.0004 59.5984 64.1156 59.1765 64.5375L42.2583 81.4557C41.3691 82.3449 39.9271 82.3449 39.0369 81.4557C38.1477 80.5655 38.1477 79.1235 39.0369 78.2333L55.9551 61.3151C56.376 60.8942 56.4922 60.2559 56.245 59.7142C54.9553 56.8802 55.1923 53.5864 56.8731 50.9661C58.5531 48.3459 61.4483 46.7561 64.561 46.7459Z" fill="black"/>
<path d="M97.4135 37.287L87.6294 30.1631V13.5543C87.6294 12.7664 86.9901 12.1271 86.2022 12.1271H76.157C75.3691 12.1271 74.7298 12.7664 74.7298 13.5543V20.772L49.8404 2.6515C49.3396 2.28727 48.6613 2.28727 48.1605 2.6515L0.587341 37.287C0.0874522 37.6503 -0.12068 38.2942 0.0697981 38.8823C0.261205 39.4696 0.809411 39.8672 1.4273 39.8672H13.9338V94.6302C13.9338 95.4182 14.5731 96.0574 15.361 96.0574H82.6389C83.4268 96.0574 84.0661 95.4182 84.0661 94.6302V39.8672H96.5735C97.1914 39.8672 97.7387 39.4696 97.9301 38.8823C98.1215 38.2942 97.9124 37.6503 97.4135 37.287ZM77.5842 14.9815H84.775V28.0845L77.5852 22.8515L77.5842 14.9815ZM82.6389 37.0129C81.8509 37.0129 81.2117 37.6521 81.2117 38.4401V93.203H16.7882V38.4401C16.7882 37.6521 16.1499 37.0129 15.361 37.0129H5.81202L49.0004 5.57093L92.1879 37.0129H82.6389Z" fill="black"/>
</g>
<defs>
<clipPath id="clip0">
<rect width="98" height="98" fill="white"/>
</clipPath>
</defs>
</svg>
