<svg width="98" height="98" viewBox="0 0 98 98" fill="none" xmlns="http://www.w3.org/2000/svg">
<g clip-path="url(#clip0)">
<path d="M75.9162 66.6974L75.7017 66.813C74.0484 64.9445 71.2997 64.2461 69.192 65.3151L69.1649 65.3295L68.3948 65.7448C66.0846 63.8794 62.8664 63.6251 60.2931 65.1047L55.4247 67.7521H48.9309C47.5486 67.7505 46.1846 67.4372 44.9402 66.8378L44.0386 66.4009C38.7223 63.8141 32.403 64.4319 27.6877 67.9984C27.6606 68.0184 27.6343 68.0391 27.6096 68.0622L25.4333 70.001C24.6983 70.6538 23.8398 71.1521 22.9087 71.4662L21.7432 67.6437C21.5861 67.1279 21.111 66.7764 20.5721 66.7764H10.043C9.69226 66.7756 9.35824 66.9262 9.12626 67.1885C8.89348 67.4516 8.78507 67.8007 8.82732 68.1491L12.3365 96.924C12.4114 97.5378 12.9328 98.0002 13.5522 98.0002H29.3427C29.7309 98.0002 30.096 97.8161 30.3264 97.5044C30.5576 97.1927 30.6269 96.7893 30.5137 96.4186L28.4937 89.7893L34.7906 85.809C35.5997 85.3634 36.5476 85.2422 37.4436 85.4686C37.4691 85.475 37.4946 85.4805 37.5201 85.4845L50.6624 87.9048C54.2856 88.5537 58.0211 88.0259 61.3238 86.3997C61.3757 86.3742 61.4259 86.3447 61.4737 86.312L84.2044 70.7049C84.7385 70.3382 84.8948 69.6183 84.5608 69.0635C82.7759 66.09 78.9662 65.0473 75.9162 66.6974ZM70.3104 67.4938C71.3101 66.9948 72.5465 67.332 73.433 68.0375L65.1248 72.52L64.8641 72.6571C64.6241 72.0465 64.3061 71.4686 63.9194 70.9376L70.3104 67.4938ZM61.4761 67.2491L61.5048 67.2324C62.864 66.4463 64.5245 66.3842 65.9387 67.0673L62.0859 69.1416C61.4267 68.68 60.6988 68.3245 59.9296 68.0885L61.4761 67.2491ZM14.6363 95.5489L11.4261 69.2229H19.6633L27.6893 95.5489H14.6363ZM60.16 84.2409C57.3491 85.6049 54.1779 86.0441 51.1024 85.4941L37.9984 83.0818C36.4981 82.7127 34.9141 82.9288 33.5669 83.6845C33.5478 83.6957 33.5287 83.7068 33.5103 83.7188L27.7515 87.3587L23.6205 73.8091C24.8904 73.3921 26.0607 72.7177 27.0588 71.8297L29.1968 69.926C33.1771 66.939 38.4943 66.4296 42.9696 68.6067L43.8712 69.0427C45.4488 69.8033 47.1763 70.1994 48.9277 70.2018H57.672C60.0882 70.205 62.1951 71.8464 62.7882 74.1893L56.7712 73.9167C54.4522 73.8131 52.1292 73.9199 49.8301 74.2379C49.1605 74.3304 48.6926 74.9482 48.785 75.6187C48.8783 76.2883 49.4961 76.7562 50.1657 76.6638C52.3173 76.3664 54.4904 76.266 56.6603 76.3632L64.1179 76.7012C64.1363 76.7012 64.1546 76.702 64.1729 76.702C64.849 76.702 65.3974 76.1544 65.3974 75.4776C65.3974 75.3675 65.3934 75.2583 65.3894 75.1483L66.2751 74.6812L77.0777 68.8538C78.5931 68.0335 80.4617 68.2655 81.7308 69.431L60.16 84.2409Z" fill="black"/>
<path d="M17.2891 91.7392C17.2891 93.5783 18.7798 95.069 20.6189 95.069C22.458 95.069 23.9487 93.5783 23.9487 91.7392C23.9487 89.9001 22.458 88.4094 20.6189 88.4094C18.7806 88.4118 17.2915 89.9009 17.2891 91.7392ZM20.6189 90.8583C21.1059 90.8583 21.4998 91.2529 21.4998 91.7392C21.4998 92.2262 21.1059 92.6201 20.6189 92.6201C20.1326 92.6201 19.738 92.2262 19.738 91.7392C19.7388 91.2529 20.1326 90.8591 20.6189 90.8583Z" fill="black"/>
<path d="M85.905 1.07619C85.83 0.461566 85.3079 0 84.6893 0H68.8988C68.5105 0 68.1454 0.184148 67.9143 0.495844C67.6839 0.807541 67.6137 1.21012 67.7269 1.5816L69.7478 8.21013L63.4509 12.1912C62.6417 12.6369 61.6939 12.758 60.7979 12.5316C60.7731 12.5253 60.7476 12.5197 60.7213 12.5149L47.5791 10.0947C43.9559 9.44655 40.2203 9.97349 36.9184 11.6005C36.8658 11.626 36.8164 11.6555 36.7685 11.6882L14.037 27.2954C13.5029 27.6621 13.3475 28.3811 13.6815 28.9359C15.4656 31.911 19.2761 32.9529 22.3261 31.3004L22.5413 31.1848C23.643 32.4356 25.2222 33.1626 26.8883 33.1865C27.6393 33.1913 28.3806 33.0191 29.0519 32.6827L29.079 32.6683L29.8482 32.2546C32.1577 34.12 35.3767 34.3735 37.95 32.8939L42.8183 30.2465H49.3121C50.6936 30.2481 52.0576 30.5606 53.3028 31.1609L54.2044 31.5969C59.5208 34.1838 65.8392 33.5667 70.5553 30.0002C70.5824 29.9795 70.6079 29.9595 70.6334 29.9364L72.8097 27.9977C73.5439 27.3448 74.4025 26.8465 75.3344 26.5325L76.4999 30.3549C76.6569 30.8707 77.132 31.2222 77.6709 31.2222H88.1976C88.5484 31.2222 88.8824 31.0724 89.1152 30.8093C89.3472 30.547 89.4564 30.1979 89.4133 29.8495L85.905 1.07619ZM27.9318 30.504C26.9314 31.003 25.6965 30.6666 24.8101 29.9603L33.1183 25.4786L33.3789 25.3407C33.6197 25.9521 33.937 26.5301 34.3236 27.0602L27.9318 30.504ZM36.7661 30.7495L36.7375 30.7655C35.3783 31.5515 33.7177 31.6137 32.3036 30.9305L36.1547 28.857C36.8148 29.3186 37.5426 29.6741 38.3119 29.9101L36.7661 30.7495ZM71.1811 26.1697L69.0431 28.0734C65.0628 31.0604 59.7456 31.5698 55.271 29.3927L54.3694 28.9567C52.7918 28.1962 51.0635 27.8 49.3121 27.7976H40.5687C38.1516 27.7944 36.0455 26.1522 35.4516 23.8101L41.4703 24.0827C43.7885 24.1864 46.1115 24.0795 48.4105 23.7615C49.0809 23.669 49.5489 23.0512 49.4556 22.3808C49.3631 21.7111 48.7453 21.2432 48.0749 21.3357C45.9241 21.633 43.7502 21.7334 41.5811 21.6362L34.1235 21.2982C33.7895 21.283 33.4642 21.405 33.2219 21.6362C32.9804 21.8674 32.844 22.187 32.844 22.5219C32.844 22.6319 32.8472 22.7411 32.852 22.8511L31.9655 23.3182L21.163 29.1456C19.6476 29.9667 17.7782 29.7347 16.5091 28.5684L38.0815 13.7569C40.8923 12.3929 44.0635 11.9545 47.139 12.5037L60.243 14.9168C61.7433 15.2851 63.3273 15.069 64.6737 14.3133C64.6929 14.303 64.712 14.2918 64.7303 14.2798L70.4891 10.6391L74.6201 24.1903C73.3502 24.6073 72.18 25.2809 71.1811 26.1697ZM78.5781 28.7749L70.5521 2.44893H83.6051L86.8153 28.7749H78.5781Z" fill="black"/>
<path d="M77.6216 2.92883C75.7825 2.92883 74.291 4.42035 74.291 6.25944C74.291 8.09773 75.7825 9.58925 77.6216 9.58925C79.4599 9.58925 80.9514 8.09773 80.9514 6.25944C80.949 4.42115 79.4591 2.93122 77.6216 2.92883ZM77.6216 7.14032C77.1345 7.14032 76.7399 6.74572 76.7399 6.25944C76.7399 5.77236 77.1345 5.37776 77.6216 5.37776C78.1079 5.37776 78.5025 5.77236 78.5025 6.25944C78.5017 6.74572 78.1079 7.13952 77.6216 7.14032Z" fill="black"/>
<path d="M59.4264 37.0655C58.7504 37.0655 58.202 37.614 58.202 38.29V40.4591L49.842 34.3727C49.4123 34.0602 48.8303 34.0602 48.4007 34.3727L34.1152 44.7726C33.6864 45.0851 33.5078 45.6376 33.6712 46.1414C33.8354 46.6452 34.305 46.9872 34.8351 46.9872H37.7942V62.6358C37.7942 63.3118 38.3427 63.8603 39.0187 63.8603H59.2223C59.8983 63.8603 60.4468 63.3118 60.4468 62.6358V46.9872H63.4059C63.936 46.9872 64.4064 46.646 64.5698 46.1422C64.734 45.6376 64.5555 45.0851 64.1266 44.7726L60.6501 42.2424V38.29C60.6501 37.614 60.1024 37.0663 59.4264 37.0655ZM51.2593 61.4121H46.9817V58.0313H51.2585L51.2593 61.4121ZM59.2223 44.5383C58.5463 44.5383 57.9979 45.0867 57.9979 45.7627V61.4113H53.7075V56.8068C53.7075 56.13 53.1598 55.5824 52.483 55.5824H45.7572C45.0812 55.5824 44.5328 56.13 44.5328 56.8068V61.4113H40.2431V45.7627C40.2431 45.0867 39.6947 44.5383 39.0187 44.5383H38.597L49.1205 36.8766L59.6432 44.5383H59.2223Z" fill="black"/>
</g>
<defs>
<clipPath id="clip0">
<rect width="98" height="98" fill="white"/>
</clipPath>
</defs>
</svg>
