<svg width="98" height="98" viewBox="0 0 98 98" fill="none" xmlns="http://www.w3.org/2000/svg">
<g clip-path="url(#clip0)">
<path d="M9.65743 27.6535C11.8197 27.6535 13.8525 26.62 15.1272 24.8729L23.3503 30.598C22.6298 33.2537 23.5861 36.0819 25.7702 37.7555C27.9544 39.43 30.9341 39.6173 33.3111 38.2309C35.688 36.8438 36.9917 34.1584 36.6092 31.4333L45.2304 24.1626C47.459 26.5052 51.0327 26.9471 53.7641 25.2164C56.4955 23.4866 57.6243 20.0674 56.4588 17.0511L64.3244 9.84129C65.8794 12.9044 69.4804 14.3182 72.7044 13.1324C75.9275 11.9466 77.7534 8.53609 76.9533 5.19581C76.1524 1.85553 72.9791 -0.356756 69.5678 0.0468258C66.1573 0.451188 63.5882 3.34417 63.5906 6.77891C63.5906 6.93581 63.5976 7.09116 63.6085 7.24494L55.181 14.9684C52.9687 12.4946 49.2912 11.9864 46.4911 13.7678C43.691 15.55 42.5934 19.0971 43.8978 22.1486L35.7755 28.9985C34.6326 26.997 32.5499 25.7144 30.2479 25.5942C27.9466 25.4748 25.7414 26.5333 24.3963 28.4053L16.1881 22.6895C16.9672 19.8855 15.8696 16.8973 13.4614 15.2643C11.0532 13.6312 7.87058 13.7171 5.5537 15.4782C3.23759 17.2385 2.30319 20.2821 3.23213 23.0393C4.16185 25.7972 6.74727 27.6543 9.65743 27.6535ZM70.3695 2.39728C72.7894 2.39728 74.7511 4.35898 74.7511 6.77891C74.7511 9.19884 72.7894 11.1605 70.3695 11.1605C67.9496 11.1605 65.9879 9.19884 65.9879 6.77891C65.9902 4.36054 67.9504 2.4004 70.3695 2.39728ZM50.1319 15.105C52.5518 15.105 54.5135 17.0667 54.5135 19.4867C54.5143 21.9066 52.5526 23.8683 50.1327 23.8683C47.712 23.8683 45.7503 21.9066 45.7503 19.4867C45.7534 17.0675 47.7135 15.1074 50.1319 15.105ZM29.8943 27.9829C32.3142 27.9829 34.2759 29.9454 34.2759 32.3653C34.2759 34.7853 32.3142 36.747 29.8943 36.747C27.4743 36.747 25.5126 34.7853 25.5126 32.3653C25.5158 29.9462 27.4759 27.9861 29.8943 27.9829ZM9.65743 16.4914C12.0774 16.4914 14.0391 18.4531 14.0391 20.873C14.0391 23.293 12.0774 25.2547 9.65743 25.2547C7.2375 25.2547 5.2758 23.293 5.2758 20.873C5.27814 18.4547 7.23828 16.4937 9.65743 16.4914Z" fill="black"/>
<path d="M34.8364 64.7784C35.4984 64.7784 36.0354 64.2421 36.0354 63.5793V47.4009C36.0354 46.7382 35.4984 46.2019 34.8364 46.2019H24.9529C24.291 46.2019 23.7539 46.7382 23.7539 47.4009V63.5793C23.7539 64.2421 24.291 64.7784 24.9529 64.7784H34.8364ZM26.152 48.6H33.6374V62.3803H26.152V48.6Z" fill="black"/>
<path d="M14.5973 64.7783C15.2593 64.7783 15.7964 64.2421 15.7964 63.5793V35.9617C15.7964 35.2997 15.2593 34.7626 14.5973 34.7626H4.71466C4.05269 34.7626 3.51562 35.2997 3.51562 35.9617V63.5793C3.51562 64.2421 4.05269 64.7783 4.71466 64.7783H14.5973ZM5.91369 37.1607H13.3983V62.3803H5.91369V37.1607Z" fill="black"/>
<path d="M76.5106 49.0426V21.7466C76.5106 21.0846 75.9743 20.5475 75.3115 20.5475H65.4281C64.7653 20.5475 64.229 21.0846 64.229 21.7466V49.1448C61.3774 49.8958 58.6835 51.1503 56.2729 52.8473V34.4044C56.2729 33.7424 55.7359 33.2053 55.0739 33.2053H45.1912C44.5285 33.2053 43.9922 33.7424 43.9922 34.4044V63.5809C43.9922 64.2429 44.5285 64.7799 45.1912 64.7799H47.181C43.7135 74.4557 46.5636 85.2689 54.3503 91.9783C62.137 98.6878 73.2522 99.9079 82.309 95.0477C91.3666 90.1884 96.4953 80.2518 95.2096 70.0538C93.9247 59.8558 86.4908 51.5031 76.5106 49.0426ZM66.6271 22.9456H74.1125V48.5766C71.6285 48.219 69.1056 48.2393 66.6271 48.6367V22.9456ZM46.3903 35.6034H53.8756V54.7708C51.5119 56.9222 49.5814 59.5053 48.1865 62.3803H46.3903V35.6034ZM70.5677 95.1953C58.3962 95.1953 48.5292 85.3282 48.5292 73.1568C48.5292 60.9853 58.3962 51.1183 70.5677 51.1183C82.7391 51.1183 92.6062 60.9853 92.6062 73.1568C92.5929 85.3235 82.7337 95.1828 70.5677 95.1961V95.1953Z" fill="black"/>
<path d="M83.0688 62.26C83.0688 61.812 82.8197 61.4014 82.4216 61.1953L78.8315 59.3358C78.46 59.143 78.015 59.1586 77.6567 59.3757C77.2992 59.5934 77.0814 59.9814 77.0814 60.3998V62.8088L71.2712 58.5794C70.8505 58.2734 70.2806 58.2734 69.8599 58.5794L53.8727 70.2185C53.5183 70.4675 53.3263 70.8883 53.3692 71.3192C53.4129 71.7501 53.6854 72.124 54.0819 72.2981C54.4785 72.4714 54.9383 72.4175 55.2841 72.1576L58.0615 70.135V86.7661C58.0615 87.4281 58.5986 87.9651 59.2606 87.9651H81.8697C82.5325 87.9651 83.0688 87.4281 83.0688 86.7661V70.135L85.847 72.1576C86.1928 72.4136 86.6503 72.4651 87.0445 72.291C87.4387 72.1177 87.7088 71.7462 87.7533 71.3176C87.7978 70.889 87.6089 70.4698 87.2584 70.2193L83.0688 67.1686V62.26ZM79.4795 62.3717L80.6707 62.9891V65.4231L79.4795 64.5559V62.3717ZM80.6707 85.5671H60.4604V68.3887L70.5655 61.0321L80.6707 68.3887V85.5671Z" fill="black"/>
</g>
<defs>
<clipPath id="clip0">
<rect width="98" height="98" fill="white"/>
</clipPath>
</defs>
</svg>
