<svg width="98" height="98" viewBox="0 0 98 98" fill="none" xmlns="http://www.w3.org/2000/svg">
<g clip-path="url(#clip0)">
<path d="M6.46508 55.4586C9.47363 55.4547 12.0815 53.3759 12.756 50.4436H22.1466C22.4687 56.698 24.9707 62.6412 29.2187 67.2423L22.6484 73.8118C19.9269 71.8932 16.1925 72.3608 14.0289 74.8924C11.8644 77.4233 11.9835 81.1857 14.3019 83.5758C16.6212 85.9658 20.3782 86.1976 22.9736 84.111C25.569 82.0244 26.1494 78.3055 24.3133 75.5273L30.9124 68.929C35.5516 73.1668 41.5329 75.6393 47.8099 75.914V85.2002C44.5353 85.8172 42.2682 88.8265 42.5778 92.1447C42.8875 95.4629 45.6727 98 49.0049 98C52.3379 98 55.1232 95.4629 55.4328 92.1447C55.7425 88.8265 53.4753 85.8172 50.1999 85.2002V75.914C56.5314 75.6362 62.5594 73.1233 67.2134 68.8217L73.7883 75.3966C71.8869 78.1321 72.3794 81.8649 74.9266 84.013C77.473 86.1611 81.2354 86.0172 83.6114 83.6816C85.9867 81.346 86.1936 77.5859 84.0891 75.0037C81.9846 72.4207 78.2595 71.8652 75.4929 73.7208L68.8993 67.1272C73.1294 62.4902 75.5972 56.5144 75.8718 50.2429H85.2102C85.849 53.5152 88.8739 55.7636 92.1913 55.4314C95.5087 55.1 98.0287 52.2976 98.0069 48.963C97.9843 45.6293 95.4286 42.8604 92.1065 42.5725C88.7852 42.2839 85.7899 44.572 85.1947 47.8528H75.8718C75.5933 41.5058 73.0695 35.4646 68.7492 30.8067L75.3615 24.1944C78.0829 26.113 81.8181 25.6454 83.9818 23.1138C86.1454 20.5829 86.0272 16.8205 83.7079 14.4304C81.3895 12.0404 77.6325 11.8086 75.037 13.8952C72.4416 15.9818 71.8612 19.7007 73.6973 22.4789L67.0523 29.1239C62.3672 24.8643 56.326 22.4019 49.9984 22.1724V12.8418C53.2941 12.3306 55.6584 9.39519 55.4562 6.06688C55.2531 2.73857 52.5503 0.111238 49.2173 0.0030955C45.8843 -0.104269 43.0174 2.34256 42.6004 5.65142C42.1834 8.95951 44.3532 12.042 47.6084 12.7647V22.1887C41.34 22.5116 35.3836 25.0253 30.7786 29.2911L24.171 22.6835C26.1066 19.98 25.6671 16.2463 23.1557 14.0671C20.6442 11.8871 16.8857 11.9774 14.4817 14.2748C12.0776 16.5723 11.817 20.3223 13.8803 22.9302C15.9443 25.538 19.6538 26.1472 22.4422 24.3352L29.095 30.9872C24.8276 35.6739 22.3605 41.7214 22.1318 48.0543H12.8502C12.3445 44.6498 9.25578 42.2418 5.831 42.5795C2.40544 42.9179 -0.151871 45.8837 0.0177341 49.3217C0.186562 52.7589 3.02317 55.4594 6.46508 55.4594V55.4586ZM21.7988 81.9583C20.228 83.5322 17.6847 83.5532 16.089 82.0042C14.4933 80.456 14.4381 77.9127 15.9645 76.296C17.491 74.6793 20.0335 74.589 21.6712 76.0937C21.7187 76.1723 21.7755 76.2446 21.84 76.31C21.8976 76.3683 21.9614 76.4204 22.0307 76.4648C23.3891 78.0792 23.2879 80.4645 21.7988 81.9583ZM53.07 91.5433C53.0723 93.7552 51.3063 95.5633 49.0944 95.6123C46.8833 95.6613 45.0386 93.9341 44.943 91.7238C44.8473 89.5143 46.5355 87.6331 48.7427 87.4907C48.9155 87.5304 49.0936 87.5304 49.2656 87.4907C51.4035 87.6292 53.0669 89.4015 53.0708 91.5433H53.07ZM81.9605 76.2096C83.5484 77.7975 83.5484 80.3712 81.9605 81.9591C80.3726 83.547 77.799 83.547 76.211 81.9591C74.6231 80.3712 74.6231 77.7975 76.211 76.2096C77.7997 74.6248 80.3718 74.6248 81.9605 76.2096ZM91.5456 44.9384C93.7909 44.9384 95.6114 46.7589 95.6106 49.0043C95.6106 51.2496 93.7901 53.0694 91.5448 53.0694C89.2994 53.0694 87.4797 51.2488 87.4797 49.0027C87.4828 46.7589 89.301 44.94 91.5456 44.9376V44.9384ZM76.2118 16.0479C77.7997 14.46 80.3734 14.46 81.9613 16.0479C83.5492 17.6358 83.5492 20.2095 81.9613 21.7974C80.3734 23.3853 77.7997 23.3853 76.2118 21.7974C75.4463 21.0365 75.016 20.0018 75.016 18.9227C75.016 17.8436 75.4463 16.8088 76.2118 16.0479ZM44.9398 6.46288C44.9398 4.21756 46.7596 2.39702 49.0049 2.39702C51.2503 2.39702 53.0708 4.21756 53.0708 6.46288C53.0708 8.70821 51.2503 10.528 49.0049 10.528C46.7612 10.5256 44.9422 8.70743 44.9398 6.46288ZM16.0501 21.7966C14.4622 20.2087 14.4622 17.6351 16.0501 16.0471C17.638 14.4592 20.2117 14.4592 21.7996 16.0471C23.3867 17.6351 23.3867 20.2087 21.7996 21.7966C20.2109 23.3814 17.6388 23.3814 16.0501 21.7966ZM49.0049 24.543C62.5383 24.543 73.5098 35.5136 73.5098 49.0471C73.5098 62.5805 62.5383 73.5519 49.0049 73.5519C35.4715 73.5519 24.5008 62.5805 24.5008 49.0471C24.5164 35.5199 35.4785 24.5585 49.0049 24.543ZM6.46508 44.9376C8.7104 44.9376 10.5302 46.7574 10.5302 49.0027C10.5302 51.248 8.7104 53.0686 6.46508 53.0686C4.21975 53.0686 2.39921 51.248 2.39921 49.0027C2.40232 46.7589 4.22053 44.94 6.46508 44.9376Z" fill="black"/>
<path d="M32.9971 48.2263C33.2492 48.2263 33.495 48.1462 33.6989 47.9976L36.4896 45.9654V62.6311C36.4896 63.2908 37.0249 63.8261 37.6846 63.8261H60.3246C60.9851 63.8261 61.5196 63.2908 61.5196 62.6311V45.9654L64.3103 47.9968C64.844 48.3718 65.58 48.2504 65.9644 47.7229C66.3487 47.1955 66.2382 46.4571 65.717 46.065L61.5196 43.0082V37.6843C61.5196 37.0246 60.9851 36.4893 60.3246 36.4893C59.6649 36.4893 59.1296 37.0246 59.1296 37.6843V41.2694L49.7079 34.4105C49.2894 34.1047 48.7206 34.1047 48.3013 34.4105L32.2922 46.065C31.8737 46.3692 31.6994 46.9091 31.8597 47.4008C32.0199 47.8933 32.479 48.2263 32.9971 48.2263ZM49.0046 36.8534L59.1296 44.225V61.4353H38.8796V44.225L49.0046 36.8534Z" fill="black"/>
</g>
<defs>
<clipPath id="clip0">
<rect width="98" height="98" fill="white"/>
</clipPath>
</defs>
</svg>
