<svg width="98" height="98" viewBox="0 0 98 98" fill="none" xmlns="http://www.w3.org/2000/svg">
<g clip-path="url(#clip0)">
<path d="M97.9754 52.0583C97.961 51.9821 97.939 51.9075 97.9111 51.8355C97.9077 51.8288 97.906 51.822 97.9035 51.8152C97.873 51.7432 97.8374 51.6738 97.795 51.6077C97.7908 51.6018 97.7874 51.5959 97.784 51.5899C97.7374 51.5196 97.6849 51.4544 97.6257 51.3951L97.6223 51.3909L83.7275 37.3607C82.6663 36.2952 81.2257 35.6939 79.7224 35.6905H59.435V15.0822C59.4308 11.6639 56.6605 8.89364 53.2423 8.8894H6.1936C2.77454 8.89364 0.00423464 11.6639 0 15.0822V74.2148C0.00423464 77.633 2.77454 80.4034 6.19275 80.4076H11.0956C11.7469 85.3079 15.9265 88.9692 20.8701 88.9692C25.8127 88.9692 29.9923 85.3079 30.6436 80.4076H67.3564C68.0077 85.3079 72.1873 88.9692 77.1299 88.9692C82.0735 88.9692 86.2531 85.3079 86.9044 80.4076H91.8072C95.2255 80.4034 97.9958 77.633 98 74.2148V52.3056C97.9992 52.2285 97.9924 52.1514 97.978 52.0761C97.978 52.0701 97.9771 52.0642 97.9754 52.0583ZM20.8701 86.3674C16.8598 86.3666 13.6093 83.1161 13.6093 79.1067C13.6093 75.0965 16.8598 71.846 20.8701 71.846C24.8794 71.846 28.1299 75.0965 28.1299 79.1067C28.1257 83.1144 24.8777 86.3624 20.8701 86.3674ZM56.8333 52.3056V77.8058H30.6436C29.9923 72.9055 25.8127 69.2442 20.8701 69.2442C15.9265 69.2442 11.7469 72.9055 11.0956 77.8058H6.19275C4.21094 77.8033 2.60431 76.1966 2.60177 74.2148V15.0822C2.60431 13.1003 4.21094 11.4937 6.19275 11.4912H53.2414C55.2241 11.4937 56.8307 13.1003 56.8333 15.0822V52.3056ZM59.435 38.2914H79.7224C80.5321 38.294 81.3079 38.6175 81.8787 39.1909L93.579 51.0047H59.435V38.2914ZM77.1299 86.3666C73.1206 86.3666 69.8701 83.1161 69.8701 79.1067C69.8701 75.0965 73.1206 71.846 77.1299 71.846C81.1402 71.846 84.3907 75.0965 84.3907 79.1067C84.3864 83.1144 81.1385 86.3624 77.1299 86.3674V86.3666ZM95.3982 74.2148C95.3957 76.1966 93.7891 77.8033 91.8072 77.8058H86.9044C86.2531 72.9055 82.0735 69.2442 77.1299 69.2442C72.1873 69.2442 68.0077 72.9055 67.3564 77.8058H59.435V53.6065H95.3982V74.2148Z" fill="black"/>
<path d="M48.6256 35.2755L45.3793 32.9126V29.2013C45.3793 28.4831 44.7966 27.9004 44.0784 27.9004C43.3602 27.9004 42.7775 28.4831 42.7775 29.2013V31.018L31.2804 22.6478C30.8248 22.3149 30.2057 22.3149 29.7492 22.6478L12.404 35.2755C11.9492 35.6066 11.7587 36.1944 11.9331 36.7297C12.1076 37.2649 12.6064 37.6283 13.1696 37.6283H16.9495V56.8138C16.9495 57.5328 17.5322 58.1147 18.2504 58.1147H42.78C43.4982 58.1147 44.0809 57.5328 44.0809 56.8138V37.6283H47.8599C48.424 37.6274 48.9228 37.2649 49.0973 36.7297C49.2718 36.1936 49.0812 35.6066 48.6256 35.2755ZM42.78 35.0265C42.0618 35.0265 41.4792 35.6083 41.4792 36.3274V55.5129H19.5513V36.3274C19.5513 35.6083 18.9686 35.0265 18.2504 35.0265H17.1663L30.5148 25.308L43.8624 35.0265H42.78Z" fill="black"/>
</g>
<defs>
<clipPath id="clip0">
<rect width="98" height="98" fill="white"/>
</clipPath>
</defs>
</svg>
