<svg width="98" height="98" viewBox="0 0 98 98" fill="none" xmlns="http://www.w3.org/2000/svg">
<g clip-path="url(#clip0)">
<path d="M13.6317 41.9735C14.2449 42.0509 14.8198 41.6597 14.9731 41.0616C15.2007 40.173 16.1046 37.3991 17.2344 36.3364C17.2519 36.3196 17.2695 36.302 17.2863 36.2837C18.67 34.848 20.5831 34.0448 22.5761 34.0615C24.5794 34.0599 26.4981 34.8712 27.8922 36.31C27.901 36.3188 27.9098 36.3268 27.9186 36.3356C29.3542 37.7193 30.1575 39.6316 30.1415 41.6254C30.1415 42.3025 30.69 42.8518 31.3679 42.8518C32.045 42.8518 32.5944 42.3025 32.5944 41.6254C32.5776 39.6316 33.3817 37.7193 34.8165 36.3356C34.8349 36.3188 34.8524 36.3012 34.8692 36.2829C36.2529 34.8472 38.1652 34.044 40.159 34.0607C42.1623 34.0591 44.0802 34.8704 45.4751 36.3092C45.4839 36.318 45.4927 36.326 45.5015 36.3348C46.9371 37.7185 47.7404 39.6316 47.7236 41.6262V50.2727L21.281 69.5236C20.9185 69.7783 20.7221 70.2087 20.7668 70.6494C20.8107 71.0902 21.0893 71.4726 21.495 71.6499C21.9006 71.8279 22.3709 71.7729 22.7246 71.5062L28.6691 67.1785V96.7735C28.6691 97.4506 29.2185 97.9999 29.8956 97.9999H68.0045C68.6824 97.9999 69.2309 97.4506 69.2309 96.7735V67.1785L75.1755 71.5062C75.5292 71.7729 75.9995 71.8279 76.4051 71.6499C76.8107 71.4726 77.0894 71.0902 77.1341 70.6494C77.178 70.2087 76.9816 69.7783 76.6191 69.5236L69.2309 64.1444V54.7824C69.2309 54.1053 68.6824 53.556 68.0045 53.556C67.3274 53.556 66.7781 54.1053 66.7781 54.7824V62.3582L50.1765 50.2719V41.6254C50.1605 39.6324 50.9638 37.7193 52.3994 36.3356C52.417 36.3188 52.4345 36.3012 52.4521 36.2837C53.835 34.848 55.7481 34.044 57.7419 34.0607C59.7444 34.0599 61.6623 34.8712 63.0565 36.3092C63.0652 36.318 63.074 36.3268 63.0828 36.3348C64.5184 37.7185 65.3217 39.6316 65.3057 41.6246C65.3057 42.3025 65.8543 42.851 66.5322 42.851C67.2092 42.851 67.7586 42.3025 67.7586 41.6246C67.7418 39.6316 68.5451 37.7185 69.9807 36.3348C69.9991 36.318 70.0166 36.3004 70.0334 36.2829C71.4171 34.8472 73.3294 34.0432 75.3232 34.0599C77.3257 34.0591 79.2437 34.8704 80.6378 36.3084C80.6465 36.3172 80.6553 36.326 80.6641 36.334C81.7939 37.3967 82.6794 40.1059 82.9254 41.0593C83.0787 41.6581 83.6535 42.0485 84.2668 41.9711C84.88 41.8936 85.3399 41.3723 85.3399 40.7542C85.3399 21.0985 69.6749 5.03509 50.1749 4.38595V1.22644C50.1749 0.549341 49.6255 0 48.9484 0C48.2706 0 47.722 0.549341 47.722 1.22644V4.38834C28.2236 5.03749 12.5586 21.1009 12.5586 40.7566C12.5586 41.3746 13.0185 41.896 13.6317 41.9735ZM47.1958 34.563C45.3402 32.6706 42.8003 31.6063 40.1494 31.6087C37.4993 31.6111 34.961 32.6802 33.1086 34.5758C32.6822 34.9838 32.2965 35.4317 31.9556 35.9132C31.7225 21.35 42.1384 11.8691 48.1492 7.6245C50.2523 17.9678 49.0099 30.1651 48.2362 35.7319C47.9232 35.3135 47.5751 34.9223 47.1958 34.563ZM66.7781 95.547H31.122V65.3932L48.681 52.6098C48.8574 52.6505 49.0419 52.6505 49.2183 52.6098L66.7773 65.3932L66.7781 95.547ZM64.7787 34.563C60.9908 30.7024 54.8012 30.6138 50.9039 34.3634C51.6552 28.3845 52.488 17.8879 50.7889 8.36867C56.8812 12.9207 66.1768 22.1469 65.9573 35.9196C65.6091 35.4301 65.2147 34.9758 64.7787 34.563ZM82.3137 34.5159C78.4771 30.6561 72.2372 30.6369 68.3766 34.4728C68.2353 30.8102 67.4855 27.1964 66.1577 23.7798C63.6992 17.4264 59.3444 11.8244 53.1859 7.08315C67.8145 8.94755 79.5766 20.0246 82.3137 34.5159ZM44.7366 7.07995C32.5065 16.5018 29.8149 27.4854 29.5435 34.4959C27.6918 32.6443 25.1807 31.6055 22.5625 31.6087C19.9436 31.6111 17.4348 32.6555 15.5872 34.5119C18.3275 20.0142 30.0992 8.93558 44.7366 7.07995Z" fill="black"/>
<path d="M46.4964 81.0941L41.6745 75.865C41.3783 75.5384 40.9303 75.3955 40.5 75.4913C40.0696 75.5863 39.7239 75.9057 39.5937 76.3265C39.4636 76.7473 39.5698 77.2056 39.8708 77.5274L45.5223 83.6555C45.9806 84.1522 46.7535 84.1841 47.2518 83.7282L57.9535 73.9263C58.4534 73.4688 58.4869 72.6935 58.0294 72.1936C57.5719 71.6938 56.7966 71.6603 56.2967 72.1178L46.4964 81.0941Z" fill="black"/>
</g>
<defs>
<clipPath id="clip0">
<rect width="98" height="98" fill="white"/>
</clipPath>
</defs>
</svg>
