<svg width="21" height="21" viewBox="0 0 21 21" fill="none" xmlns="http://www.w3.org/2000/svg">
<g clip-path="url(#clip0)">
<path d="M20.25 5.34184e-08C20.1335 -4.38912e-05 20.0186 0.027026 19.9144 0.0791004L14.231 2.92157L7.80439 0.0648623C7.79389 0.06038 7.78189 0.059589 7.77064 0.0551066C7.74173 0.0442962 7.71215 0.0352876 7.68214 0.0281246C7.6523 0.0200828 7.62198 0.0137987 7.59139 0.00936026C7.53049 0.00435057 7.46927 0.00435057 7.40841 0.00936026C7.37782 0.0137987 7.3475 0.0200828 7.31766 0.0281246C7.28765 0.0352876 7.25807 0.0442962 7.22916 0.0551066C7.21791 0.059589 7.20591 0.060336 7.19541 0.0648623L0.445511 3.06483C0.174548 3.18515 -4.39363e-05 3.45383 8.29368e-09 3.75028V20.25C0.000131842 20.5038 0.128494 20.7402 0.34123 20.8785C0.55401 21.017 0.82238 21.0385 1.05445 20.9355L7.49986 18.0706L13.9453 20.9355C13.9565 20.94 13.9685 20.9355 13.9798 20.9423C14.1613 21.0235 14.3698 21.0189 14.5475 20.9296C14.5595 20.9243 14.573 20.9296 14.585 20.9213L20.5849 17.9213C20.8391 17.7943 20.9997 17.5343 20.9996 17.2501V0.750355C20.9999 0.336133 20.6642 0.000175832 20.25 5.34184e-08ZM6.7499 16.7626L1.49996 19.0958V4.2378L6.7499 1.90456V16.7626ZM13.4998 19.0958L8.24986 16.7626V1.90456L13.4998 4.23776V19.0958ZM19.4997 16.7866L14.9998 19.0366V4.21376L19.4997 1.9638V16.7866Z" fill="#4C4C4C"/>
</g>
<defs>
<clipPath id="clip0">
<rect width="21" height="21" fill="white"/>
</clipPath>
</defs>
</svg>
