<svg width="21" height="23" viewBox="0 0 21 23" fill="none" xmlns="http://www.w3.org/2000/svg">
<path d="M5.72788 0C5.44038 0 5.20703 0.158677 5.20703 0.354177V16.6458C5.20703 16.8413 5.44038 17 5.72788 17C6.01538 17 6.24873 16.8413 6.24873 16.6458V0.354177C6.24873 0.158677 6.01538 0 5.72788 0Z" fill="#4D4C4C"/>
<path d="M11.3055 5.36201L6.09712 0.153656C5.89399 -0.049469 5.56377 -0.049469 5.36064 0.153656L0.152344 5.36201C-0.0507812 5.56513 -0.0507812 5.89536 0.152344 6.09848C0.355469 6.30161 0.685693 6.30161 0.888818 6.09848L5.72842 1.25786L10.568 6.09848C10.6701 6.19951 10.8034 6.25058 10.9368 6.25058C11.0701 6.25058 11.2034 6.19955 11.3055 6.09848C11.5086 5.89531 11.5086 5.56513 11.3055 5.36201Z" fill="#4D4C4C"/>
<path d="M15.2689 6C14.9814 6 14.748 6.15868 14.748 6.35418V22.6459C14.748 22.8414 14.9814 23 15.2689 23C15.5564 23 15.7897 22.8414 15.7897 22.6459V6.35418C15.7897 6.15868 15.5564 6 15.2689 6Z" fill="#4D4C4C"/>
<path d="M20.844 16.9031C20.6409 16.7 20.3107 16.7 20.1076 16.9031L15.268 21.7427L10.4284 16.9031C10.2252 16.7 9.89502 16.7 9.69189 16.9031C9.48877 17.1063 9.48877 17.4365 9.69189 17.6396L14.9002 22.848C15.0023 22.949 15.1356 23.0001 15.269 23.0001C15.4023 23.0001 15.5356 22.949 15.6356 22.848L20.844 17.6396C21.0472 17.4365 21.0472 17.1063 20.844 16.9031Z" fill="#4D4C4C"/>
</svg>
