<svg width="46" height="42" viewBox="0 0 46 42" fill="none" xmlns="http://www.w3.org/2000/svg">
<path d="M27.6261 23.8941C27.2691 23.7866 26.8928 23.9889 26.7854 24.3459L25.6507 28.1179C25.6317 28.181 25.6221 28.2465 25.6221 28.3124V40.4839C25.6221 40.8567 25.9242 41.1588 26.297 41.1588C26.6697 41.1588 26.9719 40.8567 26.9719 40.4839V28.4117L28.078 24.7348C28.1854 24.3778 27.9831 24.0014 27.6261 23.8941Z" fill="#49556C"/>
<path d="M29.5546 16.6562C29.1862 16.6003 28.8422 16.854 28.7864 17.2225C28.691 17.8529 28.5501 18.4803 28.3675 19.0871L27.6142 21.5912C27.5069 21.9482 27.7092 22.3245 28.066 22.432C28.1309 22.4515 28.1963 22.4608 28.2608 22.4608C28.5509 22.4608 28.819 22.2723 28.9068 21.9802L29.6601 19.476C29.861 18.8082 30.016 18.1179 30.121 17.4245C30.1768 17.0559 29.9232 16.7119 29.5546 16.6562Z" fill="#49556C"/>
<path d="M12.2833 33.2705L6.40484 33.2475C5.72365 33.2448 5.1454 32.7556 5.02994 32.0843L4.02966 26.27C3.97396 25.9461 3.69311 25.7094 3.36448 25.7094H1.35168C1.38569 24.0469 1.86559 22.4268 2.74484 21.0123L3.4623 19.858C3.63777 19.5756 3.71696 19.2512 3.69131 18.9199L3.42208 15.4356C3.15365 11.9614 4.30943 8.63973 6.6766 6.08269C9.04377 3.52556 12.2664 2.11728 15.751 2.11728C15.9077 2.11728 16.0708 2.12025 16.2355 2.1261C16.607 2.13959 16.9207 1.84804 16.9339 1.47559C16.9471 1.10314 16.6559 0.790435 16.2834 0.777207C16.1027 0.770818 15.9236 0.767578 15.751 0.767578C11.942 0.767578 8.27358 2.37068 5.68603 5.16582C3.09858 7.96096 1.78289 11.7421 2.07634 15.5396L2.34557 19.024C2.3489 19.067 2.33855 19.1091 2.31588 19.1457L1.59851 20.2998C0.552784 21.9822 0 23.9186 0 25.8997C0 26.5391 0.520209 27.0593 1.15965 27.0593H2.79586L3.69968 32.3132C3.92654 33.6314 5.06198 34.592 6.39962 34.5973L12.278 34.6204C12.8405 34.6225 13.298 35.0819 13.298 35.6443V40.5581C13.298 40.9308 13.6002 41.233 13.9729 41.233C14.3456 41.233 14.6478 40.9308 14.6478 40.5581V35.6443C14.6478 34.3404 13.5871 33.2755 12.2833 33.2705Z" fill="#49556C"/>
<path d="M44.4016 20.2997L43.6842 19.1456C43.6614 19.109 43.6512 19.0668 43.6544 19.0239L43.9236 15.5396C44.2171 11.742 42.9014 7.96096 40.314 5.16582C37.7265 2.37068 34.058 0.767578 30.249 0.767578C27.6397 0.767578 25.154 1.4431 22.9858 2.69661C21.894 2.06581 20.7201 1.57592 19.492 1.25134C19.1317 1.15587 18.7623 1.37111 18.6671 1.73142C18.5718 2.09172 18.7868 2.46111 19.1472 2.55632C20.0345 2.79082 20.8907 3.12089 21.7031 3.53465C20.5366 4.38762 19.4871 5.42354 18.5929 6.62638C15.8247 10.3497 15.0037 15.0333 16.3403 19.4762L16.916 21.3901C17.0233 21.747 17.3998 21.9495 17.7567 21.8419C18.1136 21.7346 18.316 21.3582 18.2085 21.0012L17.6328 19.0873C16.4205 15.0573 17.1653 10.8089 19.6761 7.43167C20.6112 6.17393 21.7327 5.11633 22.9891 4.28378C24.7404 5.44154 26.2194 7.01692 27.2626 8.88386C27.3862 9.10505 27.6158 9.22968 27.8523 9.22968C27.9637 9.22968 28.0768 9.20196 28.1809 9.14383C28.5063 8.96197 28.6227 8.55082 28.4408 8.22543C27.4012 6.36488 25.9679 4.76736 24.2748 3.53465C26.0912 2.61139 28.1248 2.11728 30.2491 2.11728C33.7336 2.11728 36.9563 3.52556 39.3235 6.08269C41.6906 8.63982 42.8464 11.9614 42.578 15.4356L42.3088 18.9199C42.2831 19.2514 42.3624 19.5758 42.5379 19.8581L43.2552 21.0123C44.1345 22.4268 44.6144 24.0469 44.6484 25.7094H42.6356C42.3071 25.7094 42.0262 25.9461 41.9704 26.27L40.9701 32.0843C40.8546 32.7556 40.2763 33.2448 39.5951 33.2475L33.7167 33.2705C32.4129 33.2756 31.3523 34.3404 31.3523 35.6442V40.558C31.3523 40.9307 31.6544 41.2329 32.0271 41.2329C32.3999 41.2329 32.702 40.9307 32.702 40.558V35.6442C32.702 35.0818 33.1596 34.6224 33.722 34.6203L39.6005 34.5973C40.9381 34.5919 42.0735 33.6314 42.3004 32.3131L43.2042 27.0593H44.8404C45.4799 27.0593 46.0001 26.5391 46.0001 25.8997C46.0002 23.9186 45.4474 21.9822 44.4016 20.2997Z" fill="#49556C"/>
<path d="M19.7027 29.2891C19.33 29.2891 19.0278 29.5912 19.0278 29.964V40.4831C19.0278 40.8559 19.33 41.158 19.7027 41.158C20.0754 41.158 20.3776 40.8559 20.3776 40.4831V29.964C20.3776 29.5912 20.0754 29.2891 19.7027 29.2891Z" fill="#49556C"/>
<path d="M33.1526 17.4493C33.3062 17.5208 33.4682 17.556 33.6288 17.556C33.8852 17.556 34.1377 17.4665 34.3449 17.2929L38.5171 13.7966C38.7715 13.5834 38.9175 13.2707 38.9175 12.9386C38.9175 12.6067 38.7715 12.294 38.5172 12.0808L34.3449 8.58449C34.0079 8.30203 33.5511 8.24209 33.1527 8.4281C32.7543 8.61401 32.5068 9.00266 32.5068 9.44233V10.5788H26.8838C26.2594 10.5788 25.7515 11.0868 25.7515 11.7111V14.166C25.7515 14.7904 26.2594 15.2983 26.8838 15.2983H32.5068V16.4349C32.5067 16.8747 32.7543 17.2634 33.1526 17.4493ZM27.1011 13.9486V11.9287H33.1816C33.5543 11.9287 33.8565 11.6266 33.8565 11.2538V9.93635L37.4392 12.9386L33.8565 15.941V14.6235C33.8565 14.2508 33.5543 13.9486 33.1816 13.9486H27.1011Z" fill="#49556C"/>
<path d="M21.4171 23.2205H15.7941V22.0839C15.7941 21.6443 15.5466 21.2555 15.1481 21.0697C14.7497 20.8837 14.2928 20.9436 13.9558 21.2261L9.78365 24.7224C9.52926 24.9356 9.3833 25.2482 9.3833 25.5802C9.3833 25.912 9.52917 26.2248 9.78365 26.4381L13.9559 29.9344C14.1632 30.1081 14.4156 30.1975 14.672 30.1975C14.8326 30.1975 14.9947 30.1623 15.1482 30.0907C15.5466 29.9048 15.7941 29.5161 15.7941 29.0765V27.9399H21.4171C22.0415 27.9399 22.5495 27.432 22.5495 26.8076V24.3527C22.5495 23.7284 22.0415 23.2205 21.4171 23.2205ZM21.1997 26.5902H15.1192C14.7465 26.5902 14.4443 26.8924 14.4443 27.2651V28.5826L10.8615 25.5802L14.4443 22.5779V23.8953C14.4443 24.2681 14.7465 24.5702 15.1192 24.5702H21.1997V26.5902Z" fill="#49556C"/>
</svg>