<svg width="46" height="46" viewBox="0 0 46 46" fill="none" xmlns="http://www.w3.org/2000/svg">
<path d="M30.9335 14.6391H25.0124V8.18297C25.0129 7.71752 24.8609 7.26472 24.5797 6.89384C24.2984 6.52295 23.9035 6.25439 23.4552 6.12923C23.0069 6.00407 22.5299 6.02921 22.0972 6.20078C21.6645 6.37236 21.3 6.68094 21.0593 7.07933C21.0486 7.09703 21.0387 7.11526 21.0298 7.13395L17.7498 14.0038C17.4394 14.6619 17.2623 15.3749 17.2287 16.1018H12.8052C12.6384 16.1018 12.4784 16.1681 12.3605 16.286C12.2425 16.4039 12.1763 16.5639 12.1763 16.7307V26.4762C12.1763 26.643 12.2425 26.803 12.3605 26.921C12.4784 27.0389 12.6384 27.1052 12.8052 27.1052H17.5938C17.8459 27.5486 18.2107 27.9174 18.6514 28.1742C19.0921 28.431 19.593 28.5665 20.103 28.5671H29.183C29.8431 28.5643 30.4825 28.3367 30.996 27.9218C31.5095 27.5069 31.8663 26.9295 32.0076 26.2847L33.7582 18.1355C33.8487 17.7142 33.8438 17.2779 33.7439 16.8587C33.644 16.4395 33.4516 16.048 33.1808 15.7127C32.91 15.3775 32.5676 15.1071 32.1788 14.9214C31.7899 14.7356 31.3644 14.6392 30.9335 14.6391ZM13.4341 25.8473V17.3596H17.214V25.6777C17.214 25.7349 17.2194 25.7909 17.2226 25.8473H13.4341ZM32.5284 17.8714L30.7779 26.0206C30.6981 26.3846 30.4966 26.7107 30.2067 26.9449C29.9168 27.1792 29.5557 27.3077 29.183 27.3093H20.103C19.6705 27.3087 19.2558 27.1366 18.9499 26.8308C18.6441 26.5249 18.472 26.1103 18.4714 25.6777V16.3695C18.4724 15.7386 18.6135 15.1158 18.8847 14.5461L22.1522 7.70788C22.2548 7.55069 22.4055 7.43082 22.5817 7.36609C22.7579 7.30136 22.9503 7.29522 23.1303 7.34859C23.3103 7.40195 23.4683 7.51198 23.5808 7.6623C23.6932 7.81262 23.7542 7.99523 23.7546 8.18297V15.2681C23.7546 15.4348 23.8209 15.5948 23.9388 15.7128C24.0568 15.8307 24.2167 15.897 24.3835 15.897H30.9335C31.1768 15.8971 31.417 15.9516 31.6366 16.0565C31.8561 16.1614 32.0494 16.3141 32.2023 16.5034C32.3552 16.6927 32.4638 16.9138 32.5202 17.1505C32.5767 17.3871 32.5794 17.6335 32.5284 17.8714Z" fill="#49556C"/>
<path d="M39.0346 1.6377H6.96543C5.55289 1.63922 4.19865 2.20102 3.19983 3.19983C2.20102 4.19865 1.63922 5.55289 1.6377 6.96543V29.0918C1.63922 30.5044 2.20101 31.8586 3.19981 32.8575C4.19862 33.8564 5.55286 34.4183 6.96543 34.4199H13.1107V43.7334C13.1107 43.8641 13.1514 43.9915 13.2271 44.0979C13.3029 44.2044 13.4099 44.2846 13.5333 44.3275C13.6567 44.3704 13.7903 44.3737 13.9158 44.3372C14.0412 44.3006 14.1521 44.2259 14.2331 44.1234L21.896 34.4202H39.0343C40.4468 34.4186 41.8011 33.8567 42.7999 32.8579C43.7987 31.859 44.3605 30.5047 44.362 29.0921V6.96543C44.3605 5.55296 43.7987 4.19876 42.8 3.19996C41.8012 2.20116 40.4471 1.63931 39.0346 1.6377ZM43.1045 29.0918C43.1034 30.1709 42.6742 31.2055 41.9112 31.9685C41.1482 32.7316 40.1137 33.1608 39.0346 33.1621H21.592C21.497 33.162 21.4032 33.1835 21.3177 33.2249C21.2322 33.2663 21.1571 33.3265 21.0982 33.4011L14.3689 41.9222V33.791C14.3688 33.6242 14.3025 33.4643 14.1846 33.3464C14.0667 33.2285 13.9068 33.1622 13.74 33.1621H6.96543C5.88634 33.1608 4.8518 32.7316 4.0888 31.9685C3.3258 31.2055 2.89665 30.1709 2.89551 29.0918V6.96543C2.89665 5.88637 3.32581 4.85183 4.08882 4.08882C4.85183 3.32581 5.88637 2.89665 6.96543 2.89551H39.0346C40.1137 2.89665 41.1482 3.32581 41.9112 4.08882C42.6742 4.85183 43.1034 5.88637 43.1045 6.96543V29.0918Z" fill="#49556C"/>
</svg>