<svg width="46" height="46" viewBox="0 0 46 46" fill="none" xmlns="http://www.w3.org/2000/svg">
<path d="M10.7812 4.13281C4.83647 4.13281 0 8.96928 0 14.9141C0 20.4025 4.12248 24.946 9.43359 25.6112V40.5195C9.43359 41.2638 10.037 41.8672 10.7812 41.8672C11.5255 41.8672 12.1289 41.2638 12.1289 40.5195V25.6112C17.44 24.946 21.5625 20.4025 21.5625 14.9141C21.5625 8.96928 16.726 4.13281 10.7812 4.13281ZM10.7812 23C6.32266 23 2.69531 19.3726 2.69531 14.9141C2.69531 10.4555 6.32266 6.82812 10.7812 6.82812C15.2398 6.82812 18.8672 10.4555 18.8672 14.9141C18.8672 19.3726 15.2398 23 10.7812 23Z" fill="#49556C"/>
<path d="M46 14.9141C46 8.96928 41.1635 4.13281 35.2188 4.13281C29.274 4.13281 24.4375 8.96928 24.4375 14.9141C24.4375 20.4025 28.56 24.946 33.8711 25.6112V40.5195C33.8711 41.2638 34.4745 41.8672 35.2188 41.8672C35.963 41.8672 36.5664 41.2638 36.5664 40.5195V25.6112C41.8775 24.946 46 20.4025 46 14.9141ZM35.2188 23C30.7602 23 27.1328 19.3726 27.1328 14.9141C27.1328 10.4555 30.7602 6.82812 35.2188 6.82812C39.6773 6.82812 43.3047 10.4555 43.3047 14.9141C43.3047 19.3726 39.6773 23 35.2188 23Z" fill="#49556C"/>
<path d="M14.5929 11.1018C14.0666 10.5755 13.2133 10.5755 12.687 11.1018L10.7811 13.0076L8.87529 11.1018C8.34917 10.5755 7.49583 10.5755 6.96944 11.1018C6.44313 11.628 6.44313 12.4813 6.96944 13.0076L8.87529 14.9135L6.96944 16.8193C6.44313 17.3456 6.44313 18.1989 6.96944 18.7252C7.49565 19.2515 8.34899 19.2516 8.87529 18.7252L10.7811 16.8193L12.687 18.7252C13.2132 19.2515 14.0665 19.2515 14.5929 18.7252C15.1192 18.199 15.1192 17.3456 14.5929 16.8193L12.687 14.9135L14.5929 13.0076C15.1192 12.4813 15.1192 11.628 14.5929 11.1018Z" fill="#49556C"/>
<path d="M38.4721 11.1018L33.871 15.703L31.9651 13.7972C31.439 13.2708 30.5857 13.2708 30.0593 13.7972C29.533 14.3234 29.533 15.1767 30.0593 15.703L32.918 18.5618C33.1707 18.8145 33.5135 18.9565 33.871 18.9565C34.2285 18.9565 34.5712 18.8145 34.8239 18.5617L40.3779 13.0076C40.9042 12.4813 40.9042 11.6281 40.3779 11.1017C39.8517 10.5754 38.9984 10.5754 38.4721 11.1018Z" fill="#49556C"/>
</svg>