<svg width="46" height="46" viewBox="0 0 46 46" fill="none" xmlns="http://www.w3.org/2000/svg">
<g clip-path="url(#clip0)">
<path d="M45.9337 20.2036C45.6074 16.8734 44.1294 13.9766 41.7724 12.0443C37.8461 8.82504 30.9473 8.11468 23.0001 15.2694C15.0531 8.11468 8.15431 8.82456 4.22778 12.0443C1.87076 13.9766 0.39301 16.8743 0.0664576 20.2036C-0.266084 23.5992 0.670927 27.1472 2.70331 30.1966C7.53882 37.4502 21.4617 45.4252 22.0521 45.7606C22.341 45.925 22.6677 46.0115 23.0001 46.0115C23.3325 46.0115 23.6592 45.925 23.9481 45.7606C24.5385 45.4252 38.4611 37.4497 43.2971 30.1961C45.3293 27.1472 46.2665 23.5992 45.9337 20.2036ZM40.1075 28.0703C36.4467 33.5615 26.1772 39.9704 22.9999 41.8717C19.8227 39.9713 9.55755 33.5675 5.8936 28.0703C2.53944 23.0376 3.64799 17.4771 6.66027 15.0087C7.84816 14.0365 9.34214 13.5167 10.8769 13.5417C14.0792 13.5417 17.8931 15.514 21.6467 19.2678C21.8247 19.4457 22.036 19.5869 22.2685 19.6833C22.5011 19.7796 22.7503 19.8292 23.002 19.8292C23.2537 19.8292 23.503 19.7796 23.7355 19.6833C23.9681 19.5869 24.1794 19.4457 24.3573 19.2678C29.965 13.6615 35.7071 12.0278 39.3442 15.0092C42.3532 17.4771 43.4627 23.0376 40.1075 28.0703Z" fill="#49556C"/>
<path d="M21.0834 27.9561L18.6054 25.4779L15.8948 28.1885L19.7281 32.0218C19.9061 32.1998 20.1174 32.341 20.3499 32.4373C20.5825 32.5337 20.8317 32.5832 21.0834 32.5832C21.3351 32.5832 21.5844 32.5337 21.8169 32.4373C22.0495 32.341 22.2608 32.1998 22.4388 32.0218L30.1054 24.3552L27.3948 21.6445L21.0834 27.9561Z" fill="#49556C"/>
</g>
<defs>
<clipPath id="clip0">
<rect width="46" height="46" fill="white"/>
</clipPath>
</defs>
</svg>