<svg width="46" height="46" viewBox="0 0 46 46" fill="none" xmlns="http://www.w3.org/2000/svg">
<path d="M37.9395 17.5677C37.5886 17.217 37.0197 17.217 36.6689 17.5677C36.3181 17.9187 36.3181 18.4876 36.6689 18.8384C36.6827 18.8522 36.6971 18.8663 36.711 18.8793C36.8844 19.0416 37.105 19.1219 37.3251 19.1219C37.5648 19.1219 37.8042 19.0264 37.981 18.8377C38.3202 18.4757 38.3016 17.907 37.9395 17.5677Z" fill="#49556C"/>
<path d="M36.1141 16.0926C35.5998 15.7434 35.0718 15.4319 34.5448 15.1666C31.5632 13.6663 28.4037 13.3651 25.4076 14.2955C24.9338 14.4428 24.6688 14.9462 24.8161 15.42C24.9633 15.8939 25.4665 16.1586 25.9406 16.0115C28.4835 15.2217 31.1794 15.4846 33.7369 16.7715C34.188 16.9987 34.661 17.2782 35.1049 17.5792C35.2595 17.6842 35.435 17.7346 35.6086 17.7346C35.8963 17.7346 36.179 17.5966 36.3528 17.3406C36.6315 16.9301 36.5246 16.3713 36.1141 16.0926Z" fill="#49556C"/>
<path d="M44.288 27.7192C43.9197 26.9465 43.3097 25.667 43.2987 25.2437C44.3494 22.6541 43.9661 19.7883 42.2161 17.167C39.5251 13.1354 34.0096 10.2092 29.1017 10.2092C26.5074 10.2092 23.9741 10.8279 21.6949 12.0089C21.041 8.42621 17.899 5.70117 14.1305 5.70117C9.88931 5.70117 6.43896 9.15152 6.43896 13.3926C6.43896 16.0908 7.81411 18.5442 10.1172 19.9552C10.7811 20.362 10.9313 20.7136 10.9847 21.2898V24.3573V26.5471C10.9847 27.5503 11.8006 28.3664 12.8036 28.3664H13.109C13.6025 32.2994 15.506 35.8702 18.5274 38.4979C18.5559 38.5866 18.639 39.0027 18.2819 40.2441C18.0039 41.2111 17.5771 42.2854 17.2008 43.2333C16.9488 43.8675 16.7312 44.4152 16.5997 44.8294C16.513 45.1024 16.5617 45.4005 16.7309 45.6319C16.9002 45.8631 17.1695 45.9999 17.456 45.9999H30.2807C30.7021 45.9999 31.2808 45.8112 31.6452 44.9123C31.8037 44.5212 31.9072 44.0506 32.0169 43.5522C32.1237 43.0667 32.374 41.9295 32.6228 41.7922C32.623 41.7922 32.6376 41.7897 32.6727 41.7951C32.7188 41.8025 32.7654 41.806 32.8121 41.806C34.1552 41.806 35.2526 41.8669 36.2209 41.9205C39.0607 42.0781 40.775 42.1733 42.2787 40.0073C43.0434 38.9057 42.9567 37.299 42.865 35.598C42.8177 34.7213 42.7689 33.8164 42.8556 33.0641C43.0123 32.9097 43.4049 32.6402 43.6511 32.4712C44.4981 31.8894 45.2979 31.3402 45.2979 30.5051C45.2982 29.8704 44.9143 29.033 44.288 27.7192ZM11.056 18.4228C9.29014 17.3411 8.23592 15.4607 8.23592 13.3925C8.23592 10.1421 10.8803 7.49795 14.1305 7.49795C17.3809 7.49795 20.0252 10.1422 20.0252 13.3925C20.0252 15.4607 18.971 17.3412 17.2051 18.423C16.3659 18.9374 15.867 19.5372 15.6303 20.3478L14.1303 20.3473L12.631 20.3478C12.3941 19.5373 11.8953 18.9374 11.056 18.4228ZM15.4795 22.1448V23.4588H12.7817V22.1448H15.4795ZM12.8037 26.5695C12.7938 26.5695 12.7817 26.5571 12.7817 26.547V25.2557H15.4795V26.547C15.4795 26.5571 15.4674 26.5695 15.4573 26.5695H12.8037ZM42.6342 30.9898C41.8609 31.5209 41.193 31.9795 41.0945 32.6734C40.9592 33.6254 41.016 34.6774 41.0708 35.6946C41.1389 36.9566 41.216 38.3871 40.8027 38.9825C39.9088 40.2703 39.1356 40.2828 36.3205 40.1264C35.3917 40.0748 34.2392 40.0109 32.8728 40.009C32.348 39.9471 31.4601 40.0456 30.8676 41.1975C30.5666 41.7824 30.4049 42.5174 30.2622 43.1658C30.1905 43.4916 30.0898 43.9495 29.9955 44.2028H18.7494C18.7887 44.1036 18.8294 44.0012 18.871 43.8963C20.1653 40.6374 20.9851 38.2472 19.7373 37.1686C17.0927 34.8812 15.4061 31.784 14.9225 28.3663H15.4574C16.4605 28.3663 17.2765 27.5502 17.2765 26.547V24.3572V21.2915C17.3298 20.7143 17.4796 20.3624 18.144 19.9551C20.2707 18.6522 21.6051 16.4603 21.7972 14.0076C24.0023 12.6973 26.5175 12.006 29.1018 12.006C33.3826 12.006 38.3782 14.6536 40.7218 18.1645C41.7262 19.6692 42.6964 22.0101 41.614 24.6164C41.2615 25.4652 41.7842 26.6423 42.6661 28.4924C42.9516 29.0913 43.3649 29.9583 43.4743 30.3633C43.2887 30.5404 42.8896 30.8144 42.6342 30.9898Z" fill="#49556C"/>
<path d="M18.5373 12.123C18.272 11.1397 17.6124 10.3521 16.6298 9.84515C16.1889 9.61794 15.647 9.7908 15.4195 10.2319C15.1921 10.673 15.3651 11.2148 15.8061 11.4422C16.3426 11.7189 16.6685 12.0948 16.8024 12.591C17.0143 13.3766 16.6938 14.2266 16.5531 14.4474C16.2863 14.8659 16.4093 15.4213 16.8277 15.688C16.9774 15.7835 17.1446 15.8289 17.3098 15.8289C17.6066 15.8289 17.897 15.6822 18.0682 15.4134C18.4515 14.8124 18.8926 13.44 18.5373 12.123Z" fill="#49556C"/>
<path d="M14.1304 0C13.6342 0 13.2319 0.402409 13.2319 0.898434V3.45969C13.2319 3.95571 13.6342 4.35812 14.1304 4.35812C14.6265 4.35812 15.0288 3.95571 15.0288 3.45969V0.898434C15.0288 0.402409 14.6265 0 14.1304 0Z" fill="#49556C"/>
<path d="M4.16184 12.5303H1.60058C1.10438 12.5303 0.702148 12.9327 0.702148 13.4287C0.702148 13.9249 1.10438 14.3271 1.60058 14.3271H4.16193C4.65804 14.3271 5.06027 13.9249 5.06027 13.4287C5.06027 12.9327 4.65795 12.5303 4.16184 12.5303Z" fill="#49556C"/>
<path d="M9.9237 4.34516L8.64344 2.12801C8.39529 1.69828 7.84572 1.55121 7.41608 1.79918C6.98645 2.04733 6.8392 2.59672 7.08735 3.02644L8.36762 5.24359C8.5341 5.5319 8.83597 5.69299 9.14647 5.69299C9.29893 5.69299 9.45346 5.65418 9.59488 5.57242C10.0246 5.32427 10.1719 4.77488 9.9237 4.34516Z" fill="#49556C"/>
<path d="M5.9456 7.66632L3.72818 6.38605C3.29855 6.13809 2.74898 6.28534 2.50092 6.71488C2.25277 7.1446 2.40002 7.69399 2.82975 7.94214L5.04717 9.22241C5.18858 9.30416 5.34311 9.34298 5.49549 9.34298C5.80599 9.34298 6.10795 9.18189 6.27443 8.89358C6.52258 8.46404 6.37533 7.91447 5.9456 7.66632Z" fill="#49556C"/>
<path d="M25.7603 6.71402C25.512 6.2843 24.9626 6.13705 24.533 6.3852L22.3156 7.66546C21.8859 7.91361 21.7386 8.46318 21.9868 8.89273C22.1531 9.18103 22.4551 9.34212 22.7656 9.34212C22.918 9.34212 23.0725 9.30331 23.214 9.22155L25.4314 7.94128C25.8612 7.69314 26.0084 7.14374 25.7603 6.71402Z" fill="#49556C"/>
<path d="M6.27488 17.964C6.02692 17.5343 5.47761 17.3872 5.0478 17.635L2.82984 18.9153C2.40012 19.1632 2.25278 19.7128 2.50083 20.1425C2.66722 20.4308 2.96928 20.5919 3.27978 20.5919C3.43215 20.5919 3.58659 20.5531 3.72809 20.4715L5.94597 19.1913C6.37569 18.9433 6.52303 18.3937 6.27488 17.964Z" fill="#49556C"/>
<path d="M9.41009 21.6038C8.98055 21.3559 8.43098 21.5031 8.18283 21.9327L7.08728 23.8304C6.83922 24.2602 6.98648 24.8097 7.4162 25.0577C7.5577 25.1395 7.71214 25.1783 7.86452 25.1783C8.17502 25.1783 8.47707 25.0172 8.64346 24.7289L9.73901 22.8311C9.98716 22.4014 9.8399 21.852 9.41009 21.6038Z" fill="#49556C"/>
<path d="M20.8449 1.79926C20.4151 1.55111 19.8658 1.69836 19.6176 2.12809L18.3374 4.34524C18.0892 4.77496 18.2364 5.32444 18.6661 5.5725C18.8076 5.65426 18.9621 5.69307 19.1145 5.69307C19.425 5.69307 19.727 5.53198 19.8935 5.24367L21.1737 3.02652C21.4219 2.5968 21.2746 2.04741 20.8449 1.79926Z" fill="#49556C"/>
</svg>