<svg width="46" height="46" viewBox="0 0 46 46" fill="none" xmlns="http://www.w3.org/2000/svg">
<g clip-path="url(#clip0)">
<path d="M39.6888 33.7336C39.9323 32.4411 39.926 31.1138 39.6704 29.8236L43.1817 21.3496C43.1821 21.344 43.1821 21.3384 43.1817 21.3328C43.7507 19.775 44.5846 18.3271 45.6465 17.0532C45.9108 16.7742 46.0171 16.381 45.9294 16.0067L44.4896 9.78908C44.4725 9.72408 44.4467 9.66168 44.413 9.60354C44.4068 9.59204 44.4045 9.57824 44.3984 9.56751C44.3923 9.55678 44.3654 9.53071 44.3501 9.51078C44.3187 9.46484 44.2825 9.42243 44.242 9.38428C44.2153 9.36552 44.1874 9.34861 44.1584 9.33368C44.1211 9.30616 44.0813 9.28204 44.0396 9.26161C43.9818 9.23978 43.9216 9.22511 43.8602 9.21791C43.8426 9.21791 43.8272 9.20641 43.8096 9.20488C43.6627 9.19508 43.516 9.22782 43.3872 9.29918C43.3757 9.30531 43.3619 9.30761 43.3504 9.31451H43.3427L37.9293 12.6932C37.6014 12.8962 37.3979 13.2507 37.388 13.6362C37.2376 15.2916 36.8016 16.9083 36.0992 18.4148V18.4233L34.3443 22.6652C33.483 22.2074 32.5609 21.8744 31.6058 21.6762C31.9674 19.1807 32.1003 16.6573 32.0029 14.1376C33.4301 12.4253 34.115 10.2143 33.9058 7.99508C33.4266 3.52694 29.3886 0.300045 29.2161 0.164345C28.9568 -0.0398245 28.596 -0.0551793 28.3203 0.126226C28.0447 0.307631 27.916 0.645089 28.0009 0.963978C28.3958 2.44671 28.0538 4.01148 25.1374 7.22918C23.8271 8.4944 23.4118 10.4263 24.0863 12.1182C24.3442 12.7654 24.7138 13.3622 25.1781 13.8815C24.9925 15.066 24.8469 16.1877 24.7464 17.2802C24.5735 19.0871 24.5289 20.9041 24.613 22.7174C23.9291 23.0882 23.2888 23.5344 22.704 24.0475L18.9857 8.14688C18.9857 8.13078 18.9704 8.11928 18.9658 8.10471C18.9533 8.05359 18.9353 8.00398 18.9121 7.95674L15.114 0.942511C14.7339 0.240454 13.931 -0.120312 13.1536 0.061742C12.3763 0.243796 11.8171 0.923616 11.7882 1.72144L11.5 9.69094C11.5002 9.74846 11.5066 9.80578 11.5191 9.86191C11.5191 9.87418 11.5191 9.88491 11.5191 9.89641L15.3126 26.0861C14.7142 26.1125 14.1201 26.2012 13.5401 26.3506L9.36711 16.2728C9.03249 15.5024 8.14499 15.1389 7.36611 15.4532L0.988206 18.0936C0.207637 18.4194 -0.163312 19.3144 0.157906 20.0969L5.81744 33.7497C2.50046 33.9239 -0.074262 36.7083 0.0113518 40.0288C0.0969656 43.3492 2.81176 45.9973 6.13331 46.0003H39.8666C42.0579 45.9685 44.0657 44.7701 45.1338 42.8566C46.2019 40.943 46.168 38.605 45.0449 36.7233C43.9217 34.8415 41.88 33.7018 39.6888 33.7336ZM38.9075 13.8892L42.1214 11.8836L40.9837 14.6313C40.8215 15.0226 41.0072 15.4712 41.3984 15.6334C41.7897 15.7955 42.2383 15.6098 42.4005 15.2186L43.5382 12.4709L44.39 16.1608C43.4787 17.2726 42.7301 18.5083 42.1666 19.8309C41.3673 20.2014 40.4495 20.2206 39.6353 19.8839C38.8212 19.5472 38.1851 18.8852 37.881 18.0583C38.4194 16.7244 38.7651 15.3206 38.9075 13.8892ZM37.1442 19.9083C37.6514 20.5284 38.3096 21.0076 39.0555 21.2998C39.6484 21.5548 40.2861 21.6893 40.9315 21.6954C41.0868 21.6948 41.2419 21.6854 41.3961 21.667L38.9497 27.5704C38.2172 25.9552 37.0839 24.5542 35.6576 23.5001L37.1442 19.9083ZM26.6409 14.4328L30.4926 14.6681C30.5164 15.3842 30.5079 16.1248 30.4842 16.8769C29.201 16.9686 27.9115 16.9063 26.6432 16.6914C26.5466 16.6776 26.4523 16.6668 26.3564 16.6538C26.4331 15.9316 26.5266 15.2002 26.6393 14.4328H26.6409ZM26.2752 8.25881C28.3107 6.01324 29.3656 4.28594 29.6109 2.66214C31.0741 4.16753 32.0399 6.08574 32.3778 8.15761C32.5389 9.96127 31.9812 11.7555 30.8261 13.1501C29.3117 13.0581 27.8139 12.9661 26.3327 12.8741C25.6962 12.2792 25.3301 11.4502 25.319 10.5791C25.3078 9.70789 25.6526 8.86988 26.2736 8.25881H26.2752ZM26.2169 18.1818L26.4392 18.2109C27.4271 18.3637 28.4244 18.4485 29.4239 18.4647C29.7413 18.4647 30.0755 18.4394 30.4106 18.4133C30.3408 19.4 30.2266 20.4304 30.0817 21.4953C29.8923 21.4853 29.7068 21.4669 29.5166 21.4669C28.3591 21.469 27.2103 21.6668 26.1188 22.0519C26.0834 20.7611 26.1157 19.4693 26.2154 18.1818H26.2169ZM20.2867 27.1472L18.0933 17.8038C17.9908 17.3985 17.5823 17.15 17.1752 17.2454C16.7681 17.3407 16.5125 17.7447 16.6006 18.1534L18.5717 26.563C18.0298 26.3692 17.4699 26.2297 16.9004 26.1467L13.5355 11.787C14.0069 12.0016 14.5187 12.113 15.0366 12.1136C15.0849 12.1136 15.1363 12.1067 15.1853 12.1044L15.7274 14.419C15.7858 14.6899 15.9859 14.9082 16.2507 14.99C16.5155 15.0717 16.8038 15.0042 17.0048 14.8133C17.2057 14.6225 17.288 14.3381 17.2201 14.0694L16.6773 11.7533C17.1974 11.523 17.6562 11.1737 18.0166 10.7336L21.4375 25.3608C20.9933 25.915 20.6076 26.5136 20.2867 27.1472ZM15.6024 10.5105C14.6219 10.7007 13.6208 10.2998 13.0425 9.48548L13.1399 6.78528C13.4066 6.8351 13.6773 6.86076 13.9487 6.86194C14.2108 6.86304 14.4722 6.83397 14.7276 6.77531C15.2448 6.63948 15.7286 6.39889 16.149 6.06844L17.4401 8.45124C17.2863 9.43988 16.567 10.2464 15.6024 10.512V10.5105ZM13.5025 1.55431C13.6069 1.53012 13.7147 1.57837 13.7662 1.67238L15.41 4.71221C15.1135 4.98046 14.7594 5.17717 14.375 5.28721C13.9821 5.35933 13.5779 5.34018 13.1935 5.23124L13.3185 1.77664C13.3227 1.66952 13.398 1.57844 13.5025 1.55431ZM7.95414 16.8669L8.53987 18.2822L5.70321 19.4567C5.36692 19.598 5.17668 19.9566 5.24831 20.3142C5.31995 20.6718 5.63363 20.9295 5.99837 20.9303C6.0991 20.9301 6.19883 20.9103 6.29201 20.872L9.12867 19.6967L9.71517 21.1135L8.29607 21.7015C7.95786 21.8415 7.76576 22.201 7.8374 22.56C7.90904 22.919 8.22444 23.1772 8.59047 23.1766C8.69094 23.1763 8.79039 23.1565 8.88334 23.1183L10.3024 22.5303L10.8889 23.9471L8.04997 25.1239C7.71176 25.2639 7.51966 25.6234 7.5913 25.9824C7.66294 26.3414 7.97834 26.5996 8.34437 26.599C8.44485 26.5987 8.54431 26.5789 8.63724 26.5407L11.4739 25.3662L12.0941 26.8635C9.59587 28.0038 7.76392 30.2336 7.12997 32.9056L1.57317 19.5073L7.95414 16.8669ZM39.8666 44.4669H6.13331C3.5928 44.4669 1.53331 42.4075 1.53331 39.8669C1.53331 37.3264 3.5928 35.2669 6.13331 35.2669C6.57753 35.2655 7.01955 35.3295 7.44507 35.4571C7.67495 35.5265 7.92409 35.4842 8.11818 35.3428C8.31228 35.2014 8.42892 34.9773 8.43331 34.7372C8.48784 32.0048 10.0674 29.533 12.524 28.3355C14.9806 27.1381 17.9007 27.4167 20.0866 29.0569C20.2798 29.2007 20.5293 29.2454 20.7603 29.1776C20.9914 29.1097 21.1771 28.9373 21.2619 28.7119C22.7598 24.7201 26.8995 22.372 31.0944 23.1349C35.2892 23.8979 38.337 27.5533 38.3333 31.8169C38.3348 32.6937 38.2043 33.5658 37.9461 34.4037C37.8656 34.6644 37.9296 34.9483 38.1143 35.1491C38.2991 35.3499 38.5766 35.4374 38.8431 35.3789C39.1793 35.3049 39.5224 35.2674 39.8666 35.2669C42.4072 35.2669 44.4666 37.3264 44.4666 39.8669C44.4666 42.4075 42.4072 44.4669 39.8666 44.4669Z" fill="#49556C"/>
<path d="M29.6583 12.0372C29.899 12.0381 30.1261 11.926 30.2716 11.7344C31.2288 10.4389 31.5987 8.80135 31.2913 7.22024C31.2259 6.94989 31.0192 6.73616 30.7512 6.66175C30.4832 6.58734 30.1959 6.66392 30.0005 6.86186C29.8051 7.0598 29.7323 7.34805 29.8101 7.61507C29.9937 8.73857 29.7198 9.88879 29.0496 10.809C28.8753 11.0413 28.8473 11.3521 28.9772 11.6119C29.1071 11.8716 29.3725 12.0357 29.6629 12.0357L29.6583 12.0372Z" fill="#49556C"/>
<path d="M28.6503 35.2666C28.0802 35.2683 27.5179 35.3994 27.0058 35.6499C25.6266 33.7627 23.0514 33.2099 21.0192 34.3647C18.9869 35.5195 18.1439 38.0148 19.0593 40.1656C19.1798 40.4483 19.4574 40.6317 19.7646 40.6317C19.8679 40.632 19.9702 40.6111 20.0652 40.5704C20.2522 40.4907 20.4 40.3399 20.4759 40.1513C20.5518 39.9626 20.5497 39.7516 20.47 39.5645C20.3031 39.1755 20.217 38.7566 20.217 38.3332C20.217 36.6396 21.59 35.2666 23.2836 35.2666C24.4731 35.2607 25.5565 35.9499 26.0551 37.0299C26.0717 37.0549 26.0896 37.0789 26.1088 37.102C26.1209 37.1283 26.1345 37.1539 26.1494 37.1786C26.1632 37.1955 26.1832 37.2032 26.1985 37.2193C26.2345 37.2566 26.2743 37.29 26.3173 37.3189C26.3556 37.3484 26.3967 37.3741 26.44 37.3956C26.4845 37.4143 26.5307 37.4287 26.578 37.4385C26.6251 37.4509 26.6735 37.4584 26.7221 37.4608C26.8217 37.46 26.9206 37.4434 27.015 37.4117C27.0354 37.4079 27.0557 37.4031 27.0756 37.3971C27.1004 37.3811 27.1243 37.3634 27.1469 37.3442C27.1745 37.332 27.2013 37.3182 27.2274 37.3028C27.6301 36.9772 28.1324 36.7996 28.6503 36.7999C29.5467 36.8014 30.3606 37.3235 30.7356 38.1377C30.9114 38.5231 31.3662 38.693 31.7515 38.5172C32.1368 38.3415 32.3067 37.8867 32.131 37.5014C31.5067 36.1407 30.1474 35.2679 28.6503 35.2666Z" fill="#49556C"/>
<path d="M13.5578 29.9397C13.442 29.9773 10.7334 30.9142 10.7334 33.734C10.7334 34.1574 11.0766 34.5006 11.5001 34.5006C11.9235 34.5006 12.2667 34.1574 12.2667 33.734C12.3293 32.6645 13.033 31.7393 14.0469 31.3933C14.4492 31.2583 14.6658 30.8227 14.5307 30.4204C14.3956 30.0182 13.9601 29.8016 13.5578 29.9367V29.9397Z" fill="#49556C"/>
<path d="M24.3471 29.1112C24.408 29.1266 24.4706 29.1344 24.5334 29.1342C24.8848 29.1338 25.1909 28.8946 25.2763 28.5538C25.6292 27.1222 26.8966 26.1038 28.3706 26.0675C28.794 26.0665 29.1364 25.7223 29.1353 25.2989C29.1343 24.8755 28.7902 24.5331 28.3668 24.5342C26.1877 24.5631 24.3046 26.0636 23.7898 28.1812C23.6869 28.5919 23.9364 29.0083 24.3471 29.1112Z" fill="#49556C"/>
</g>
<defs>
<clipPath id="clip0">
<rect width="46" height="46" fill="white"/>
</clipPath>
</defs>
</svg>