<svg width="46" height="46" viewBox="0 0 46 46" fill="none" xmlns="http://www.w3.org/2000/svg">
<path d="M22.9195 5.84523C23.4192 5.84523 23.8243 5.44013 23.8243 4.94042V0.904816C23.8243 0.405106 23.4192 0 22.9195 0C22.4198 0 22.0146 0.405106 22.0146 0.904816V4.94042C22.0147 5.44013 22.4198 5.84523 22.9195 5.84523Z" fill="#49556C"/>
<path d="M45.0366 31.0845L43.4382 29.4906C42.8696 28.9227 42.1118 28.6098 41.3043 28.6098C40.7879 28.6098 40.2923 28.7383 39.853 28.979L36.8409 25.9705L36.9876 25.824C38.2096 24.5996 38.2091 22.61 36.9875 21.3897C36.551 20.9524 36.0063 20.6607 35.4125 20.538C35.4942 20.2558 35.5373 19.9602 35.5373 19.6577C35.5373 18.8172 35.2108 18.0291 34.6198 17.4405C34.1832 17.0032 33.6385 16.7115 33.0447 16.5888C33.1265 16.3066 33.1695 16.0111 33.1695 15.7085C33.1695 14.868 32.843 14.0799 32.2511 13.4905C31.804 13.0439 31.2544 12.7613 30.6774 12.641C30.9861 11.5766 30.7223 10.3791 29.8849 9.54031C29.1879 8.84627 28.2421 8.54799 27.3307 8.64466L21.3619 7.51487C20.4516 7.34219 19.3148 7.228 18.5972 7.88251C18.552 7.92384 18.5058 7.97137 18.4603 8.02429C17.3477 7.61873 16.05 7.86023 15.159 8.75022C14.5679 9.34059 14.2423 10.1283 14.2423 10.9684C14.2423 11.271 14.2852 11.5665 14.3669 11.8488C13.7737 11.9714 13.2297 12.2627 12.7946 12.6986C12.2023 13.2884 11.8758 14.0753 11.8751 14.9143C11.8749 15.2176 11.9179 15.5141 12 15.7971C11.4066 15.9195 10.8622 16.2102 10.4258 16.6461C9.83352 17.2378 9.50738 18.026 9.50738 18.8656C9.50738 19.5087 9.69938 20.1213 10.0552 20.6388C9.60594 20.7911 9.19446 21.0445 8.84991 21.3887C7.62713 22.61 7.62668 24.5996 8.85072 25.8258L8.99689 25.9714L5.98443 28.9784C4.86489 28.4513 3.48552 28.6487 2.56165 29.5714L0.962254 31.1663C0.393363 31.7345 0.080168 32.4924 0.0800781 33.3004C0.0800781 34.1084 0.393363 34.8665 0.962254 35.4347L2.95831 37.4283C3.31185 37.7815 3.88478 37.7812 4.23787 37.4276C4.59104 37.0741 4.59068 36.5012 4.23715 36.1481L2.24109 34.1544C2.0145 33.9281 1.88971 33.6248 1.88971 33.3005C1.88971 32.9762 2.0145 32.673 2.24055 32.4472L3.84004 30.8522C4.23966 30.4531 4.85132 30.3936 5.31581 30.6713C5.34852 30.7204 5.38634 30.7672 5.42965 30.8105C5.50718 30.8883 5.59568 30.9478 5.68965 30.9914L14.8621 40.1503C14.9056 40.2453 14.9655 40.3347 15.0436 40.4129C15.1196 40.489 15.2063 40.5478 15.2983 40.5911C15.4922 40.8104 15.5994 41.0906 15.5994 41.3894C15.5994 41.7137 15.4746 42.0169 15.248 42.2433L13.6502 43.8392C13.178 44.3093 12.4101 44.3092 11.9394 43.8407L9.94331 41.8444C9.58995 41.4911 9.01711 41.4911 8.66375 41.8444C8.3104 42.1978 8.3104 42.7706 8.66375 43.124L10.6612 45.1217C11.2492 45.7072 12.0213 45.9998 12.7938 45.9998C13.5664 45.9998 14.3394 45.7067 14.9281 45.1207L16.527 43.5237C17.0959 42.9554 17.4091 42.1975 17.4091 41.3894C17.4091 40.8127 17.2488 40.2619 16.9506 39.787L20.3409 36.4008C20.3445 36.3971 20.3481 36.3934 20.3518 36.3898C20.74 35.9884 21.8211 36.0635 22.8666 36.1361C23.6094 36.1878 24.4376 36.2452 25.2468 36.1519L28.9595 39.8602C28.7189 40.2988 28.5906 40.7938 28.5906 41.3093C28.5906 42.1166 28.9038 42.874 29.4727 43.4423L31.0717 45.0393C31.6402 45.6072 32.398 45.92 33.2056 45.92C34.013 45.92 34.7708 45.6073 35.3394 45.0393L45.0373 35.3532C45.6062 34.7851 45.9194 34.0271 45.9194 33.2191C45.9193 32.4111 45.6061 31.6532 45.0366 31.0845ZM21.025 9.29288L24.95 10.0358L22.6007 12.3842C22.2373 12.2096 21.7392 11.8838 21.1927 11.3611C20.4448 10.6456 19.9098 9.81945 19.8611 9.3042C19.861 9.30393 19.861 9.30366 19.861 9.30339C19.861 9.3033 19.8609 9.30321 19.8609 9.30312C19.8574 9.26611 19.8565 9.23655 19.8569 9.214C19.9753 9.18525 20.2895 9.15335 21.025 9.29288ZM16.4378 10.0306C16.8961 9.57265 17.6082 9.51982 18.1262 9.87057C18.4197 11.1013 19.4695 12.2167 19.9418 12.6686C20.2919 13.0035 21.415 14.0077 22.5487 14.2837C22.702 14.5035 22.7855 14.7656 22.7855 15.0422C22.7855 15.3984 22.6485 15.7314 22.3988 15.9808C22.1498 16.2303 21.8162 16.3675 21.4594 16.3675C21.1024 16.3675 20.7688 16.2303 20.5187 15.9797L20.5186 15.9796L20.5182 15.9791L16.4377 11.906C16.1889 11.6576 16.0519 11.3245 16.0519 10.9684C16.052 10.6121 16.189 10.2791 16.4378 10.0306ZM14.0734 13.979C14.3224 13.7296 14.6556 13.5923 15.0119 13.5923C15.3687 13.5923 15.703 13.7299 15.9536 13.9802L19.2393 17.2594C19.7568 17.7776 19.7568 18.6209 19.2411 19.1373C18.9908 19.3866 18.6561 19.5239 18.2986 19.5239C17.9411 19.5239 17.6063 19.3866 17.3571 19.1384L17.357 19.1383L14.8643 16.6461C14.8605 16.6423 14.8562 16.6387 14.8523 16.6347L14.0724 15.8552C13.8222 15.6053 13.6845 15.2716 13.6848 14.9157C13.6851 14.5609 13.8224 14.2289 14.0734 13.979ZM11.7046 17.9265C11.9537 17.6777 12.2877 17.5407 12.6451 17.5407C12.9995 17.5407 13.3306 17.6758 13.5787 17.9202L16.079 20.4194C16.3283 20.6677 16.4657 21.0004 16.4657 21.3562C16.4657 21.7119 16.3283 22.0446 16.078 22.2939C15.829 22.5426 15.4954 22.6796 15.1386 22.6796C14.7813 22.6796 14.4466 22.5422 14.1972 22.2939L13.2908 21.3885C13.2906 21.3883 13.2903 21.3881 13.2902 21.3879L11.7047 19.8043C11.4547 19.5547 11.3171 19.2212 11.3171 18.8654C11.3171 18.5097 11.4547 18.1761 11.7046 17.9265ZM10.1287 22.669C10.379 22.4191 10.7134 22.2814 11.0703 22.2814C11.4272 22.2814 11.7615 22.419 12.0116 22.6687L12.9193 23.5753C13.1687 23.8237 13.306 24.1564 13.306 24.5121C13.306 24.8679 13.1686 25.2005 12.9174 25.4508C12.6684 25.7001 12.3349 25.8375 11.978 25.8375C11.621 25.8375 11.2875 25.7002 11.0367 25.449L10.9231 25.3358C10.9215 25.3343 10.9204 25.3327 10.9189 25.3312C10.9172 25.3296 10.9154 25.3282 10.9137 25.3266L10.1296 24.5456C9.61223 24.0271 9.61178 23.1853 10.1287 22.669ZM28.5677 32.9523C28.2146 32.5987 27.6416 32.5984 27.2882 32.9515L26.4832 33.7555C25.7183 34.5205 24.3322 34.4242 22.9919 34.3312C21.5363 34.23 20.0311 34.1256 19.0571 35.1256L15.7244 38.4543L7.39022 30.1323L10.3396 27.1882C10.8271 27.487 11.3896 27.6472 11.9782 27.6472C12.819 27.6472 13.6075 27.3213 14.1964 26.7313C14.7893 26.1408 15.1159 25.3528 15.1159 24.5122C15.1159 24.5044 15.1153 24.4967 15.1153 24.4889C15.1232 24.489 15.131 24.4894 15.1388 24.4894C15.9785 24.4894 16.7663 24.1644 17.356 23.5754C17.9489 22.985 18.2755 22.1969 18.2755 21.3564C18.2755 21.3486 18.275 21.3408 18.275 21.333C18.2829 21.333 18.2908 21.3336 18.2988 21.3336C19.1382 21.3336 19.9265 21.009 20.5202 20.4177C21.1365 19.8004 21.4413 18.9876 21.4355 18.1766C21.4436 18.1767 21.4517 18.1772 21.4597 18.1772C22.3006 18.1771 23.089 17.8512 23.6788 17.2603C24.2699 16.6699 24.5955 15.8822 24.5955 15.0422C24.5955 14.4547 24.4357 13.8931 24.1379 13.4066L26.723 10.8226C26.9156 10.6307 27.1531 10.5104 27.4021 10.4607C27.4291 10.4578 27.4557 10.4535 27.482 10.4483C27.8814 10.3932 28.3009 10.5165 28.6064 10.8207C29.1238 11.339 29.1238 12.1823 28.6083 12.6987L27.821 13.4827C27.8183 13.4853 27.8156 13.4877 27.813 13.4903L26.9062 14.3956C26.5525 14.7486 26.5522 15.3216 26.9054 15.6751C27.2586 16.0287 27.8315 16.029 28.1849 15.6759L28.9754 14.8866C28.9755 14.8864 28.9757 14.8862 28.9759 14.886L29.0954 14.767C29.6142 14.2529 30.4548 14.254 30.9731 14.7716C31.2225 15.0199 31.3599 15.3526 31.3599 15.7084C31.3599 16.064 31.2225 16.3967 30.9711 16.647L30.1794 17.4405C30.1793 17.4405 30.1792 17.4406 30.1791 17.4408L29.2724 18.3438C28.9183 18.6965 28.9171 19.2694 29.2698 19.6234C29.6224 19.9775 30.1953 19.9785 30.5493 19.626L31.4602 18.7188C31.7091 18.4694 32.0427 18.3321 32.3996 18.3321C32.7565 18.3321 33.0902 18.4694 33.341 18.7206C33.5904 18.9691 33.7276 19.3017 33.7276 19.6575C33.7276 20.0132 33.5904 20.3459 33.3395 20.5957L31.761 22.1749C31.4077 22.5283 31.4078 23.1011 31.7611 23.4544C31.9379 23.631 32.1693 23.7193 32.4008 23.7193C32.6324 23.7193 32.8641 23.6309 33.0407 23.4541L33.8143 22.6802C33.8187 22.676 33.8235 22.6723 33.8279 22.6679C34.0769 22.4185 34.4105 22.2812 34.7673 22.2812C35.1243 22.2812 35.4579 22.4185 35.7077 22.6688C36.2246 23.1851 36.2241 24.027 35.7077 24.5443L34.9211 25.33C34.9209 25.3303 34.9205 25.3305 34.9202 25.3308C34.92 25.3311 34.9197 25.3314 34.9194 25.3317L33.671 26.5786C33.3174 26.9318 33.3171 27.5047 33.6701 27.8583C33.8469 28.0352 34.0787 28.1237 34.3104 28.1237C34.5417 28.1237 34.7732 28.0355 34.9498 27.8591L35.5605 27.2491L38.4873 30.1726L30.1538 38.4959L27.168 35.5136C27.3761 35.3797 27.5753 35.2223 27.7623 35.0354L28.5668 34.2318C28.9206 33.8788 28.9209 33.3059 28.5677 32.9523ZM43.7583 34.0729L34.0605 43.7589C33.8337 43.9855 33.53 44.1103 33.2055 44.1103C32.881 44.1103 32.5773 43.9855 32.3503 43.7588L30.7514 42.1619C30.5248 41.9356 30.4 41.6329 30.4 41.3093C30.4 40.9859 30.5248 40.6831 30.7514 40.4568L40.4492 30.7707C40.6762 30.5441 40.9797 30.4193 41.3043 30.4193C41.6289 30.4193 41.9325 30.5441 42.16 30.7713L43.7584 32.3652C43.985 32.5915 44.1098 32.8947 44.1098 33.219C44.1097 33.5434 43.9849 33.8466 43.7583 34.0729Z" fill="#49556C"/>
<path d="M10.905 5.08195C11.0816 5.25822 11.3129 5.34627 11.5442 5.34627C11.776 5.34627 12.0078 5.25768 12.1846 5.0806C12.5376 4.72688 12.537 4.15404 12.1833 3.80104L8.88623 0.510516C8.5326 0.157519 7.95967 0.157969 7.60667 0.511773C7.25368 0.865488 7.25422 1.43833 7.60793 1.79133L10.905 5.08195Z" fill="#49556C"/>
<path d="M34.2954 5.34721C34.5268 5.34721 34.7582 5.25898 34.9348 5.08262L38.2294 1.792C38.583 1.43892 38.5833 0.865982 38.2301 0.512446C37.877 0.158911 37.3042 0.158552 36.9506 0.511728L33.656 3.80235C33.3025 4.15543 33.3021 4.72836 33.6553 5.0819C33.832 5.2588 34.0637 5.34721 34.2954 5.34721Z" fill="#49556C"/>
<path d="M5.64385 38.9209C5.29355 39.2772 5.2984 39.8501 5.65481 40.2005L5.65741 40.203C5.83324 40.3758 6.06153 40.4619 6.28973 40.4619C6.52396 40.4619 6.75818 40.3712 6.93562 40.1907C7.28592 39.8344 7.27972 39.2602 6.9234 38.9099C6.56717 38.5596 5.99433 38.5646 5.64385 38.9209Z" fill="#49556C"/>
<path d="M30.7811 31.6492C30.9188 31.6492 31.0584 31.6178 31.1895 31.5518C31.6356 31.3267 31.8149 30.7826 31.5899 30.3364C31.3648 29.8903 30.8207 29.7109 30.3746 29.936L30.3696 29.9385C29.9234 30.1636 29.7467 30.7064 29.9716 31.1526C30.1305 31.4678 30.45 31.6492 30.7811 31.6492Z" fill="#49556C"/>
</svg>