<svg width="46" height="46" viewBox="0 0 46 46" fill="none" xmlns="http://www.w3.org/2000/svg">
<path d="M17.8365 12.1863H28.1635C28.4931 12.1863 28.793 12.0189 28.966 11.7385C29.1391 11.4582 29.1541 11.115 29.0065 10.8207L23.843 0.520375C23.682 0.199363 23.3591 0 23 0C22.6409 0 22.318 0.199363 22.1569 0.520375L16.9935 10.8206C16.8458 11.115 16.861 11.4582 17.0339 11.7386C17.207 12.0189 17.507 12.1863 17.8365 12.1863ZM23 1.83524L27.5158 10.8434H18.4843L23 1.83524Z" fill="#49556C"/>
<path d="M10.3404 28.4548H35.6597C35.9892 28.4548 36.289 28.2874 36.4621 28.0072C36.6351 27.7269 36.6503 27.3837 36.5027 27.0891L30.2244 14.5672C30.0634 14.2462 29.7404 14.0469 29.3814 14.0469H22.2353C21.8645 14.0469 21.5639 14.3475 21.5639 14.7183C21.5639 15.0891 21.8645 15.3897 22.2353 15.3897H29.1346L35.012 27.1118H10.9881L16.8655 15.3897H19.0859C19.4567 15.3897 19.7573 15.0891 19.7573 14.7183C19.7573 14.3475 19.4567 14.0469 19.0859 14.0469H16.6187C16.2597 14.0469 15.9368 14.2462 15.7757 14.5672L9.49729 27.0891C9.34968 27.3837 9.36496 27.7268 9.53799 28.0071C9.71103 28.2874 10.0109 28.4548 10.3404 28.4548Z" fill="#49556C"/>
<path d="M44.9711 44.634L41.0234 36.7588C40.8572 36.4273 40.4538 36.2932 40.1222 36.4595C39.7908 36.6257 39.6567 37.0291 39.8229 37.3606L43.4803 44.6567H2.51966L9.03521 31.6593H36.9648L38.4194 34.5612C38.5857 34.8927 38.989 35.0267 39.3206 34.8605C39.6522 34.6944 39.7861 34.2909 39.62 33.9594L38.0546 30.8366C37.8936 30.5158 37.5706 30.3164 37.2116 30.3164H8.78841C8.42949 30.3164 8.1065 30.5158 7.94532 30.8368L1.02879 44.6341C0.881176 44.9286 0.896449 45.2717 1.06949 45.552C1.24262 45.8322 1.54252 45.9996 1.87188 45.9996H44.1281C44.4575 45.9996 44.7574 45.8322 44.9305 45.552C45.1035 45.2717 45.1187 44.9286 44.9711 44.634Z" fill="#49556C"/>
</svg>