<svg width="16" height="20" viewBox="0 0 16 20" fill="none" xmlns="http://www.w3.org/2000/svg">
<path d="M10.8871 0.115502C10.7954 0.0189134 10.6697 -0.0390701 10.5394 -0.0390701H2.7374C1.29773 -0.0390701 0.109375 1.14456 0.109375 2.58407V17.3377C0.109375 18.7773 1.29773 19.961 2.7374 19.961H13.3267C14.7664 19.961 15.9547 18.7773 15.9547 17.3377V5.62271C15.9547 5.49713 15.8968 5.37644 15.8147 5.28458L10.8871 0.115502ZM11.0272 1.66626L14.3268 5.13001H12.1818C11.5442 5.13001 11.0272 4.61792 11.0272 3.98025V1.66626ZM13.3267 18.9948H2.7374C1.83408 18.9948 1.07556 18.246 1.07556 17.3377V2.58407C1.07556 1.68075 1.8292 0.927118 2.7374 0.927118H10.061V3.98025C10.061 5.15412 11.008 6.09619 12.1818 6.09619H14.9886V17.3377C14.9886 18.246 14.2349 18.9948 13.3267 18.9948Z" fill="black" fill-opacity="0.8"/>
<path d="M12.0075 15.6615H4.05585C3.79019 15.6615 3.57275 15.8788 3.57275 16.1446C3.57275 16.4103 3.79019 16.6277 4.05585 16.6277H12.0124C12.2781 16.6277 12.4955 16.4103 12.4955 16.1446C12.4955 15.8788 12.2781 15.6615 12.0075 15.6615Z" fill="black" fill-opacity="0.8"/>
<path d="M7.67931 13.9272C7.77117 14.0238 7.89675 14.0818 8.03194 14.0818C8.16729 14.0818 8.29287 14.0238 8.38457 13.9272L11.2155 10.8885C11.3991 10.6952 11.3846 10.3861 11.1914 10.2074C10.9981 10.0238 10.689 10.0382 10.5103 10.2315L8.51504 12.3715V7.09626C8.51504 6.83045 8.2976 6.61317 8.03194 6.61317C7.76629 6.61317 7.54885 6.83045 7.54885 7.09626V12.3715L5.55849 10.2315C5.37493 10.0383 5.07051 10.0238 4.87734 10.2074C4.68416 10.391 4.66966 10.6954 4.85323 10.8885L7.67931 13.9272Z" fill="black" fill-opacity="0.8"/>
</svg>
