<svg width="23" height="17" viewBox="0 0 23 17" fill="none" xmlns="http://www.w3.org/2000/svg">
<path d="M22.1818 12.6724H21.8182V9.63705C21.8177 9.23469 21.6643 8.84897 21.3916 8.56446C21.1189 8.27995 20.7493 8.11988 20.3637 8.11936V1.66918C20.3631 1.26682 20.2097 0.8811 19.9371 0.596592C19.6644 0.312084 19.2947 0.152016 18.9091 0.151489H3.63637C3.25075 0.152016 2.88108 0.312084 2.6084 0.596592C2.33573 0.8811 2.18232 1.26682 2.18182 1.66918V8.11936C1.79621 8.11988 1.42653 8.27995 1.15386 8.56446C0.881187 8.84897 0.727778 9.23469 0.727273 9.63705V12.6724H0.363637C0.267194 12.6724 0.174702 12.7124 0.106507 12.7836C0.0383116 12.8547 0 12.9512 0 13.0518V14.5695C0 14.6702 0.0383116 14.7667 0.106507 14.8378C0.174702 14.909 0.267194 14.949 0.363637 14.949H0.727273V16.4666C0.727273 16.5673 0.765585 16.6638 0.83378 16.7349C0.901975 16.8061 0.994467 16.8461 1.09091 16.8461H2.18182C2.26586 16.8461 2.34732 16.8157 2.4123 16.7601C2.47729 16.7045 2.52177 16.6271 2.53818 16.5411L2.84364 14.949H19.7018L20.0073 16.5411C20.0237 16.6271 20.0682 16.7045 20.1332 16.7601C20.1982 16.8157 20.2796 16.8461 20.3637 16.8461H21.4546C21.551 16.8461 21.6435 16.8061 21.7117 16.7349C21.7799 16.6638 21.8182 16.5673 21.8182 16.4666V14.949H22.1818C22.2783 14.949 22.3708 14.909 22.439 14.8378C22.5072 14.7667 22.5455 14.6702 22.5455 14.5695V13.0518C22.5455 12.9512 22.5072 12.8547 22.439 12.7836C22.3708 12.7124 22.2783 12.6724 22.1818 12.6724ZM2.90909 1.66918C2.90935 1.468 2.98605 1.27514 3.12239 1.13289C3.25872 0.990631 3.44356 0.910597 3.63637 0.910334H18.9091C19.1019 0.910597 19.2868 0.990631 19.4231 1.13289C19.5594 1.27514 19.6361 1.468 19.6364 1.66918V8.11936H18.9091V6.60167C18.9086 6.19931 18.7552 5.81359 18.4825 5.52908C18.2099 5.24457 17.8402 5.08451 17.4546 5.08398H13.0909C12.7053 5.08451 12.3356 5.24457 12.063 5.52908C11.7903 5.81359 11.6369 6.19931 11.6364 6.60167V8.11936H10.9091V6.60167C10.9086 6.19931 10.7552 5.81359 10.4825 5.52908C10.2098 5.24457 9.84017 5.08451 9.45455 5.08398H5.09091C4.7053 5.08451 4.33562 5.24457 4.06295 5.52908C3.79028 5.81359 3.63687 6.19931 3.63637 6.60167V8.11936H2.90909V1.66918ZM18.1818 6.60167V8.11936H12.3636V6.60167C12.3639 6.40049 12.4406 6.20763 12.5769 6.06537C12.7133 5.92312 12.8981 5.84309 13.0909 5.84282H17.4546C17.6474 5.84309 17.8322 5.92312 17.9685 6.06537C18.1049 6.20763 18.1816 6.40049 18.1818 6.60167ZM10.1818 6.60167V8.11936H4.36364V6.60167C4.36389 6.40049 4.4406 6.20763 4.57693 6.06537C4.71327 5.92312 4.89811 5.84309 5.09091 5.84282H9.45455C9.64736 5.84309 9.8322 5.92312 9.96853 6.06537C10.1049 6.20763 10.1816 6.40049 10.1818 6.60167ZM1.45455 9.63705C1.4548 9.43587 1.5315 9.24301 1.66784 9.10075C1.80417 8.9585 1.98901 8.87846 2.18182 8.8782H20.3637C20.5565 8.87846 20.7413 8.9585 20.8776 9.10075C21.014 9.24301 21.0907 9.43587 21.0909 9.63705V12.6724H1.45455V9.63705ZM1.88364 16.0872H1.45455V14.949H2.10182L1.88364 16.0872ZM21.0909 16.0872H20.6618L20.4437 14.949H21.0909V16.0872ZM21.8182 14.1901H0.727273V13.4313H21.8182V14.1901Z" fill="#747474"/>
</svg>
