<svg width="20" height="17" viewBox="0 0 20 17" fill="none" xmlns="http://www.w3.org/2000/svg">
<path d="M19.4255 8.49878H4.04086V7.85668C4.04086 7.77153 4.00844 7.68987 3.95074 7.62966C3.89304 7.56946 3.81477 7.53563 3.73317 7.53563H3.42548V6.57248H4.04086V6.89353C4.04086 6.97868 4.07328 7.06034 4.13098 7.12055C4.18869 7.18076 4.26695 7.21458 4.34855 7.21458C4.43016 7.21458 4.50842 7.18076 4.56612 7.12055C4.62383 7.06034 4.65625 6.97868 4.65625 6.89353V5.60933C4.65625 5.52419 4.62383 5.44252 4.56612 5.38232C4.50842 5.32211 4.43016 5.28828 4.34855 5.28828C4.26695 5.28828 4.18869 5.32211 4.13098 5.38232C4.07328 5.44252 4.04086 5.52419 4.04086 5.60933V5.93038H3.42548V2.07779C3.42578 1.73729 3.55555 1.41084 3.7863 1.17007C4.01705 0.929309 4.32992 0.793907 4.65625 0.793589H5.88701C6.21334 0.793907 6.52621 0.929309 6.75696 1.17007C6.98771 1.41084 7.11748 1.73729 7.11778 2.07779V2.10508C6.68789 2.18146 6.2977 2.41393 6.01618 2.76143C5.73466 3.10893 5.57993 3.54907 5.57932 4.00408C5.57932 4.08923 5.61174 4.17089 5.66944 4.2311C5.72715 4.29131 5.80541 4.32513 5.88701 4.32513H8.96393C9.04554 4.32513 9.1238 4.29131 9.18151 4.2311C9.23921 4.17089 9.27163 4.08923 9.27163 4.00408C9.27102 3.54907 9.11628 3.10893 8.83476 2.76143C8.55324 2.41393 8.16306 2.18146 7.73317 2.10508V2.07779C7.73265 1.56707 7.53797 1.07742 7.19187 0.716287C6.84576 0.355154 6.37648 0.152031 5.88701 0.151489H4.65625C4.16678 0.152031 3.6975 0.355154 3.35139 0.716287C3.00528 1.07742 2.81061 1.56707 2.81009 2.07779V7.53563H2.5024C2.4208 7.53563 2.34253 7.56946 2.28483 7.62966C2.22713 7.68987 2.19471 7.77153 2.19471 7.85668V8.49878H0.963942C0.882337 8.49878 0.804074 8.5326 0.746371 8.59281C0.688667 8.65302 0.65625 8.73468 0.65625 8.81983V9.78298C0.65625 9.86813 0.688667 9.94979 0.746371 10.01C0.804074 10.0702 0.882337 10.104 0.963942 10.104H1.88702V13.9566C1.88763 14.4116 2.04236 14.8518 2.32388 15.1993C2.6054 15.5468 2.99558 15.7793 3.42548 15.8556V16.525C3.42548 16.6102 3.4579 16.6918 3.5156 16.752C3.5733 16.8122 3.65156 16.8461 3.73317 16.8461C3.81477 16.8461 3.89304 16.8122 3.95074 16.752C4.00844 16.6918 4.04086 16.6102 4.04086 16.525V15.8829H16.3485V16.525C16.3485 16.6102 16.381 16.6918 16.4387 16.752C16.4964 16.8122 16.5746 16.8461 16.6562 16.8461C16.7378 16.8461 16.8161 16.8122 16.8738 16.752C16.9315 16.6918 16.9639 16.6102 16.9639 16.525V15.8556C17.3938 15.7793 17.784 15.5468 18.0655 15.1993C18.347 14.8518 18.5018 14.4116 18.5024 13.9566V10.104H19.4255C19.5071 10.104 19.5853 10.0702 19.643 10.01C19.7007 9.94979 19.7332 9.86813 19.7332 9.78298V8.81983C19.7332 8.73468 19.7007 8.65302 19.643 8.59281C19.5853 8.5326 19.5071 8.49878 19.4255 8.49878ZM7.42547 2.71989C7.69827 2.72023 7.96326 2.81496 8.17894 2.98925C8.39463 3.16353 8.54883 3.40753 8.6174 3.68304H6.23355C6.30212 3.40753 6.45632 3.16353 6.672 2.98925C6.88769 2.81496 7.15267 2.72023 7.42547 2.71989ZM2.81009 8.17773H3.42548V8.49878H2.81009V8.17773ZM17.887 13.9566C17.8867 14.2971 17.7569 14.6236 17.5262 14.8643C17.2954 15.1051 16.9826 15.2405 16.6562 15.2408H3.73317C3.40684 15.2405 3.09397 15.1051 2.86322 14.8643C2.63248 14.6236 2.50271 14.2971 2.5024 13.9566V10.104H17.887V13.9566ZM19.1178 9.46193H1.27163V9.14088H19.1178V9.46193Z" fill="#747474"/>
</svg>
