<svg width="16" height="20" viewBox="0 0 16 20" fill="none" xmlns="http://www.w3.org/2000/svg">
<path d="M7.57194 10.2792C7.80186 10.516 8.18243 10.5163 8.41266 10.2792L11.2565 7.35045C12.2563 6.3267 12.2558 4.662 11.2553 3.63864C10.3588 2.72208 8.98174 2.62118 7.99232 3.27721C7.24645 2.7827 6.47468 2.8559 6.5844 2.8559C4.28199 2.8559 3.10004 5.68387 4.72846 7.35084L7.57194 10.2792ZM5.5671 4.45798C6.12247 3.89023 7.0247 3.88234 7.57339 4.44341C7.80287 4.67805 8.18114 4.67856 8.41113 4.44341C8.9597 3.88254 9.86198 3.89008 10.4174 4.45791C10.9469 4.99949 11.0171 5.91918 10.387 6.56356C10.3286 6.62317 10.8199 6.11788 7.99224 9.03003C5.65584 6.62379 5.60194 6.56802 5.59753 6.56356C4.96728 5.91824 5.03817 4.99902 5.5671 4.45798Z" fill="#333333"/>
<path d="M15.2028 0H0.796852C0.473271 0 0.210938 0.262333 0.210938 0.585914V19.4003C0.210938 19.8847 0.767869 20.1601 1.15285 19.8656L7.99938 14.6274L14.8461 19.8782C15.2311 20.1735 15.7885 19.8979 15.7885 19.4133L15.7887 0.585914C15.7887 0.262529 15.5264 0 15.2028 0ZM14.6167 18.2256L8.3564 13.4245C8.14821 13.2648 7.85607 13.2617 7.64385 13.4241L1.38277 18.2143V1.17183H14.6169L14.6167 18.2256Z" fill="#333333"/>
</svg>
