<svg width="26" height="26" viewBox="0 0 26 26" fill="none" xmlns="http://www.w3.org/2000/svg">
<path d="M6.09375 12.9998C6.09375 11.7117 6.44866 10.5049 7.06525 9.4717V5.08887H2.68242C0.942906 7.34802 0 10.1013 0 12.9998C0 15.8983 0.942906 18.6516 2.68242 20.9108H7.06525V16.528C6.44866 15.4947 6.09375 14.288 6.09375 12.9998Z" fill="#FBBD00"/>
<path d="M13 19.9063L9.95312 22.9532L13 26C15.8985 26 18.6518 25.0571 20.911 23.3176V18.9395H16.5328C15.4905 19.5583 14.2787 19.9063 13 19.9063Z" fill="#0F9D58"/>
<path d="M7.06545 16.5283L2.68262 20.9111C3.02702 21.3584 3.40204 21.7868 3.80783 22.1926C6.2632 24.6479 9.52778 26.0002 13.0002 26.0002V19.9064C10.4802 19.9064 8.2716 18.5496 7.06545 16.5283Z" fill="#31AA52"/>
<path d="M26 13.0001C26 12.2092 25.9284 11.4168 25.7871 10.6451L25.6728 10.0205H13V16.1143H19.1675C18.5686 17.3056 17.6477 18.2776 16.5327 18.9396L20.9109 23.3178C21.3582 22.9734 21.7865 22.5984 22.1924 22.1926C24.6477 19.7371 26 16.4726 26 13.0001Z" fill="#3C79E6"/>
<path d="M17.8835 8.11652L18.4221 8.65511L22.731 4.34622L22.1924 3.80763C19.737 1.35225 16.4725 0 13 0L9.95312 3.04688L13 6.09375C14.8447 6.09375 16.579 6.8121 17.8835 8.11652Z" fill="#CF2D48"/>
<path d="M12.9998 6.09375V0C9.52734 0 6.26277 1.35225 3.80734 3.80758C3.40155 4.21337 3.02653 4.64171 2.68213 5.08904L7.06496 9.47187C8.27116 7.45062 10.4798 6.09375 12.9998 6.09375Z" fill="#EB4132"/>
</svg>
