<svg width="22" height="22" viewBox="0 0 22 22" fill="none" xmlns="http://www.w3.org/2000/svg">
<path d="M5.88276 0H0.796407C0.45936 0 0.183594 0.275766 0.183594 0.612813V5.69916C0.183594 6.0362 0.45936 6.31197 0.796407 6.31197H5.88276C6.21981 6.31197 6.49557 6.0362 6.49557 5.69916V0.612813C6.49557 0.275766 6.21981 0 5.88276 0ZM5.33123 5.14763H1.40922V1.22563H5.33123V5.14763Z" fill="white" fill-opacity="0.9"/>
<path d="M13.5429 0H8.45656C8.11952 0 7.84375 0.275766 7.84375 0.612813V5.69916C7.84375 6.0362 8.11952 6.31197 8.45656 6.31197H13.5429C13.88 6.31197 14.1557 6.0362 14.1557 5.69916V0.612813C14.1557 0.275766 13.88 0 13.5429 0ZM12.9914 5.14763H9.06938V1.22563H12.9914V5.14763Z" fill="white" fill-opacity="0.9"/>
<path d="M5.88276 7.72147H0.796407C0.45936 7.72147 0.183594 7.99723 0.183594 8.33428V13.4206C0.183594 13.7577 0.45936 14.0334 0.796407 14.0334H5.88276C6.21981 14.0334 6.49557 13.7577 6.49557 13.4206V8.33428C6.49557 7.99723 6.21981 7.72147 5.88276 7.72147ZM5.33123 12.8078H1.40922V8.94709H5.33123V12.8078Z" fill="white" fill-opacity="0.9"/>
<path d="M13.5429 7.72147H8.45656C8.11952 7.72147 7.84375 7.99723 7.84375 8.33428V13.4206C7.84375 13.7577 8.11952 14.0334 8.45656 14.0334H13.5429C13.88 14.0334 14.1557 13.7577 14.1557 13.4206V8.33428C14.1557 7.99723 13.88 7.72147 13.5429 7.72147ZM12.9914 12.8078H9.06938V8.94709H12.9914V12.8078Z" fill="white" fill-opacity="0.9"/>
<path d="M21.2031 0H16.1167C15.7797 0 15.5039 0.275766 15.5039 0.612813V5.69916C15.5039 6.0362 15.7797 6.31197 16.1167 6.31197H21.2031C21.5401 6.31197 21.8159 6.0362 21.8159 5.69916V0.612813C21.8159 0.275766 21.5401 0 21.2031 0ZM20.6515 5.14763H16.7295V1.22563H20.6515V5.14763Z" fill="white" fill-opacity="0.9"/>
<path d="M21.2031 7.72147H16.1167C15.7797 7.72147 15.5039 7.99723 15.5039 8.33428V13.4206C15.5039 13.7577 15.7797 14.0334 16.1167 14.0334H21.2031C21.5401 14.0334 21.8159 13.7577 21.8159 13.4206V8.33428C21.8159 7.99723 21.5401 7.72147 21.2031 7.72147ZM20.6515 12.8078H16.7295V8.94709H20.6515V12.8078Z" fill="white" fill-opacity="0.9"/>
<path d="M5.88276 15.688H0.796407C0.45936 15.688 0.183594 15.9638 0.183594 16.3008V21.3872C0.183594 21.7242 0.45936 22 0.796407 22H5.88276C6.21981 22 6.49557 21.7242 6.49557 21.3872V16.3008C6.49557 15.9638 6.21981 15.688 5.88276 15.688ZM5.33123 20.8357H1.40922V16.9136H5.33123V20.8357Z" fill="white" fill-opacity="0.9"/>
<path d="M13.5429 15.688H8.45656C8.11952 15.688 7.84375 15.9638 7.84375 16.3008V21.3872C7.84375 21.7242 8.11952 22 8.45656 22H13.5429C13.88 22 14.1557 21.7242 14.1557 21.3872V16.3008C14.1557 15.9638 13.88 15.688 13.5429 15.688ZM12.9914 20.8357H9.06938V16.9136H12.9914V20.8357Z" fill="white" fill-opacity="0.9"/>
<path d="M21.2031 15.688H16.1167C15.7797 15.688 15.5039 15.9638 15.5039 16.3008V21.3872C15.5039 21.7242 15.7797 22 16.1167 22H21.2031C21.5401 22 21.8159 21.7242 21.8159 21.3872V16.3008C21.8159 15.9638 21.5401 15.688 21.2031 15.688ZM20.6515 20.8357H16.7295V16.9136H20.6515V20.8357Z" fill="white" fill-opacity="0.9"/>
</svg>
