<svg width="17" height="17" viewBox="0 0 17 17" fill="none" xmlns="http://www.w3.org/2000/svg">
<path d="M6.33333 6.61511C6.18184 6.61511 6.05902 6.74327 6.05902 6.90133V11.2443C6.05902 11.4024 6.18184 11.5305 6.33333 11.5305H9.10798H11.8827H14.6573C14.8088 11.5305 14.9315 11.4024 14.9315 11.2443V6.90133C14.9315 6.74327 14.8088 6.61511 14.6573 6.61511C14.5058 6.61511 14.383 6.74327 14.383 6.90133V10.9581H12.157V6.90133C12.157 6.74327 12.0342 6.61511 11.8827 6.61511H9.10803C8.95655 6.61511 8.83379 6.74327 8.83379 6.90133V10.9581H6.60769V6.90133C6.60763 6.74327 6.48481 6.61511 6.33333 6.61511ZM9.38222 7.18756H11.6084V10.9581H9.38222V7.18756Z" fill="#747474"/>
<path d="M4.80318 7.10389L10.495 1.16483L16.1872 7.10396C16.2408 7.15984 16.311 7.18774 16.3812 7.18774C16.4514 7.18774 16.5216 7.15977 16.5751 7.10389C16.6822 6.99213 16.6822 6.81092 16.5751 6.69916L13.7124 3.71232V0.760095C13.7124 0.602031 13.5897 0.473877 13.4382 0.473877C13.2867 0.473877 13.1639 0.602031 13.1639 0.760095V3.14001L10.689 0.557728C10.5818 0.445968 10.4082 0.445968 10.301 0.557728L4.41529 6.69916C4.30818 6.81092 4.30818 6.99213 4.41529 7.10389C4.5224 7.21565 4.69607 7.21565 4.80318 7.10389Z" fill="#747474"/>
<path d="M16.3811 13.3207C16.2297 13.3207 16.1069 13.4488 16.1069 13.6069V14.7973H4.88351V13.6069C4.88351 13.4488 4.76069 13.3207 4.6092 13.3207C4.45772 13.3207 4.3349 13.4488 4.3349 13.6069V16.5599C4.3349 16.7179 4.45772 16.8461 4.6092 16.8461C4.76069 16.8461 4.88351 16.7179 4.88351 16.5599V15.3696H16.1069V16.5599C16.1069 16.7179 16.2297 16.8461 16.3811 16.8461C16.5326 16.8461 16.6554 16.7179 16.6554 16.5599V13.6069C16.6555 13.4488 16.5327 13.3207 16.3811 13.3207Z" fill="#747474"/>
<path d="M3.76067 0.723852C3.91215 0.723852 4.03497 0.5957 4.03497 0.437639C4.03497 0.279578 3.91215 0.151489 3.76067 0.151489H0.930554C0.779069 0.151489 0.65631 0.27964 0.65631 0.437702C0.65631 0.595763 0.779129 0.723914 0.930614 0.723914H2.07131V12.4345H0.930554C0.779069 12.4345 0.65625 12.5627 0.65625 12.7207C0.65625 12.8788 0.779069 13.007 0.930554 13.007H3.76067C3.91215 13.007 4.03497 12.8788 4.03497 12.7207C4.03497 12.5627 3.91215 12.4345 3.76067 12.4345H2.61986V0.723852H3.76067Z" fill="#747474"/>
</svg>
