<svg width="22" height="22" viewBox="0 0 22 22" fill="none" xmlns="http://www.w3.org/2000/svg">
<g clip-path="url(#clip0)">
<path d="M21.9789 6.46806C21.9273 5.29912 21.7383 4.49548 21.4675 3.79911C21.1882 3.05994 20.7584 2.39816 20.1953 1.84802C19.6452 1.28931 18.979 0.855178 18.2484 0.580191C17.548 0.309402 16.7486 0.12037 15.5796 0.0688306C14.402 0.0129267 14.0281 0 11.0412 0C8.05429 0 7.68042 0.0129267 6.50712 0.0644657C5.33817 0.116005 4.53453 0.305205 3.83834 0.575827C3.099 0.855178 2.43722 1.28495 1.88708 1.84802C1.32838 2.39816 0.894407 3.0643 0.619253 3.79492C0.348464 4.49548 0.159432 5.29475 0.107893 6.4637C0.0519892 7.64137 0.0390625 8.01524 0.0390625 11.0021C0.0390625 13.9891 0.0519892 14.3629 0.103528 15.5362C0.155067 16.7052 0.344267 17.5088 0.615056 18.2052C0.894407 18.9444 1.32838 19.6061 1.88708 20.1563C2.43722 20.715 3.10336 21.1491 3.83397 21.4241C4.53453 21.6949 5.33381 21.8839 6.50292 21.9355C7.67606 21.9872 8.05009 21.9999 11.037 21.9999C14.0239 21.9999 14.3978 21.9872 15.5711 21.9355C16.74 21.8839 17.5437 21.6949 18.2399 21.4241C19.7184 20.8525 20.8873 19.6835 21.4589 18.2052C21.7296 17.5046 21.9188 16.7052 21.9703 15.5362C22.0218 14.3629 22.0348 13.9891 22.0348 11.0021C22.0348 8.01524 22.0304 7.64137 21.9789 6.46806ZM19.9977 15.4503C19.9504 16.5247 19.7699 17.1049 19.6195 17.4917C19.2498 18.4501 18.4892 19.2108 17.5307 19.5805C17.1439 19.7309 16.5596 19.9113 15.4893 19.9585C14.3289 20.0102 13.9809 20.023 11.0456 20.023C8.11019 20.023 7.75782 20.0102 6.60163 19.9585C5.5272 19.9113 4.94701 19.7309 4.56022 19.5805C4.08327 19.4042 3.64914 19.1248 3.29676 18.7595C2.93145 18.4028 2.6521 17.973 2.47583 17.4961C2.32541 17.1093 2.14494 16.5247 2.09777 15.4546C2.04606 14.2943 2.0333 13.9461 2.0333 11.0107C2.0333 8.07534 2.04606 7.72296 2.09777 6.56694C2.14494 5.49251 2.32541 4.91232 2.47583 4.52553C2.6521 4.04841 2.93145 3.61444 3.30112 3.2619C3.6577 2.89659 4.08747 2.61724 4.56458 2.44114C4.95138 2.29072 5.53593 2.11024 6.606 2.0629C7.76638 2.01136 8.11456 1.99844 11.0498 1.99844C13.9895 1.99844 14.3375 2.01136 15.4937 2.0629C16.5681 2.11024 17.1483 2.29072 17.5351 2.44114C18.0121 2.61724 18.4462 2.89659 18.7986 3.2619C19.1639 3.61864 19.4432 4.04841 19.6195 4.52553C19.7699 4.91232 19.9504 5.49671 19.9977 6.56694C20.0493 7.72732 20.0622 8.07534 20.0622 11.0107C20.0622 13.9461 20.0493 14.2899 19.9977 15.4503Z" fill="#4D4C4C"/>
<path d="M11.0411 5.35083C7.9211 5.35083 5.38965 7.88212 5.38965 11.0023C5.38965 14.1225 7.9211 16.6538 11.0411 16.6538C14.1613 16.6538 16.6926 14.1225 16.6926 11.0023C16.6926 7.88212 14.1613 5.35083 11.0411 5.35083ZM11.0411 14.6683C9.01701 14.6683 7.37516 13.0266 7.37516 11.0023C7.37516 8.97803 9.01701 7.33634 11.0411 7.33634C13.0654 7.33634 14.7071 8.97803 14.7071 11.0023C14.7071 13.0266 13.0654 14.6683 11.0411 14.6683Z" fill="#4D4C4C"/>
<path d="M18.2356 5.12723C18.2356 5.85583 17.6448 6.4466 16.9161 6.4466C16.1875 6.4466 15.5967 5.85583 15.5967 5.12723C15.5967 4.39846 16.1875 3.80786 16.9161 3.80786C17.6448 3.80786 18.2356 4.39846 18.2356 5.12723Z" fill="#4D4C4C"/>
</g>
<defs>
<clipPath id="clip0">
<rect width="22" height="22" fill="white"/>
</clipPath>
</defs>
</svg>
