<svg width="19" height="22" viewBox="0 0 19 22" fill="none" xmlns="http://www.w3.org/2000/svg">
<g clip-path="url(#clip0)">
<path d="M9.50014 0.0266113C5.62995 0.0266113 2.48145 3.50258 2.48145 7.77529C2.48145 9.18191 3.05285 10.6947 3.0768 10.7585C3.26135 11.2421 3.62549 11.9933 3.88807 12.4336L8.70042 20.4836C8.89736 20.8136 9.18884 21.0027 9.50014 21.0027C9.81144 21.0027 10.1029 20.8136 10.2999 20.484L15.1126 12.4336C15.3756 11.9933 15.7393 11.2421 15.9239 10.7585C15.9478 10.6952 16.5188 9.18236 16.5188 7.77529C16.5188 3.50258 13.3703 0.0266113 9.50014 0.0266113ZM15.1626 10.4048C14.9978 10.8383 14.6589 11.537 14.4231 11.9318L9.61038 19.9822C9.51542 20.1413 9.48528 20.1413 9.39032 19.9822L4.57756 11.9318C4.34181 11.537 4.00285 10.8378 3.83812 10.4044C3.8311 10.3857 3.30717 8.9932 3.30717 7.77529C3.30717 4.00533 6.08534 0.938221 9.50014 0.938221C12.9149 0.938221 15.6931 4.00533 15.6931 7.77529C15.6931 8.99503 15.1679 10.3912 15.1626 10.4048Z" fill="#4D4C4C"/>
<path d="M9.49995 3.67358C7.45091 3.67358 5.78418 5.51413 5.78418 7.77584C5.78418 10.0376 7.45091 11.8781 9.49995 11.8781C11.549 11.8781 13.2157 10.0376 13.2157 7.77584C13.2157 5.51413 11.549 3.67358 9.49995 3.67358ZM9.49995 10.9665C7.90671 10.9665 6.60991 9.53525 6.60991 7.77584C6.60991 6.01643 7.90671 4.5852 9.49995 4.5852C11.0932 4.5852 12.39 6.01643 12.39 7.77584C12.39 9.53525 11.0932 10.9665 9.49995 10.9665Z" fill="#4D4C4C"/>
</g>
<defs>
<clipPath id="clip0">
<rect width="19" height="20.9761" fill="white" transform="translate(0 0.0266113)"/>
</clipPath>
</defs>
</svg>
