<svg width="15" height="22" viewBox="0 0 15 22" fill="none" xmlns="http://www.w3.org/2000/svg">
<path d="M7.50014 0.0267029C3.62995 0.0267029 0.481445 3.50267 0.481445 7.77538C0.481445 9.182 1.05285 10.6948 1.0768 10.7586C1.26135 11.2422 1.62549 11.9934 1.88807 12.4337L6.70042 20.4837C6.89736 20.8137 7.18884 21.0028 7.50014 21.0028C7.81144 21.0028 8.10292 20.8137 8.29986 20.4841L13.1126 12.4337C13.3756 11.9934 13.7393 11.2422 13.9239 10.7586C13.9478 10.6953 14.5188 9.18245 14.5188 7.77538C14.5188 3.50267 11.3703 0.0267029 7.50014 0.0267029ZM13.1626 10.4049C12.9978 10.8384 12.6589 11.5371 12.4231 11.9319L7.61038 19.9823C7.51542 20.1414 7.48528 20.1414 7.39032 19.9823L2.57756 11.9319C2.34181 11.5371 2.00285 10.8379 1.83812 10.4045C1.8311 10.3858 1.30717 8.99329 1.30717 7.77538C1.30717 4.00542 4.08534 0.938312 7.50014 0.938312C10.9149 0.938312 13.6931 4.00542 13.6931 7.77538C13.6931 8.99512 13.1679 10.3912 13.1626 10.4049Z" fill="white" fill-opacity="0.7"/>
<path d="M7.49995 3.6736C5.45091 3.6736 3.78418 5.51414 3.78418 7.77586C3.78418 10.0376 5.45091 11.8781 7.49995 11.8781C9.54899 11.8781 11.2157 10.0376 11.2157 7.77586C11.2157 5.51414 9.54899 3.6736 7.49995 3.6736ZM7.49995 10.9665C5.90671 10.9665 4.60991 9.53527 4.60991 7.77586C4.60991 6.01644 5.90671 4.58521 7.49995 4.58521C9.09319 4.58521 10.39 6.01644 10.39 7.77586C10.39 9.53527 9.09319 10.9665 7.49995 10.9665Z" fill="white" fill-opacity="0.7"/>
</svg>
