<svg width="15" height="12" viewBox="0 0 15 12" fill="none" xmlns="http://www.w3.org/2000/svg">
<path d="M14.2308 0.10717H0.769248C0.346143 0.10717 0 0.489314 0 0.956394V10.298C0 10.7651 0.346143 11.1473 0.769248 11.1473H14.2308C14.6538 11.1473 15 10.7651 15 10.298V0.956394C15 0.489314 14.6539 0.10717 14.2308 0.10717ZM13.9421 0.744056L7.9425 5.71216C7.83463 5.80278 7.66904 5.85948 7.49997 5.85864C7.33093 5.85948 7.16537 5.80278 7.05747 5.71216L1.05788 0.744056H13.9421ZM10.7373 6.03996L14.0065 10.4985C14.0098 10.5029 14.0138 10.5063 14.0173 10.5104H0.982676C0.986133 10.5061 0.990176 10.5029 0.993457 10.4985L4.2627 6.03996C4.36286 5.90324 4.34388 5.70281 4.2198 5.59197C4.09597 5.48138 3.91441 5.50234 3.81422 5.63909L0.576914 10.0541V1.14215L6.7115 6.22164C6.9421 6.41124 7.22265 6.49469 7.49994 6.49553C7.77686 6.49488 8.05764 6.41143 8.28838 6.22164L14.423 1.14215V10.054L11.1858 5.63909C11.0856 5.50237 10.9038 5.48135 10.7802 5.59197C10.6561 5.70255 10.6371 5.90324 10.7373 6.03996Z" fill="#4D4C4C"/>
</svg>
