<svg width="15" height="12" viewBox="0 0 15 12" fill="none" xmlns="http://www.w3.org/2000/svg">
<path d="M14.2308 0.107422H0.769248C0.346143 0.107422 0 0.489566 0 0.956645V10.2983C0 10.7653 0.346143 11.1475 0.769248 11.1475H14.2308C14.6538 11.1475 15 10.7654 15 10.2983V0.956645C15 0.489566 14.6539 0.107422 14.2308 0.107422ZM13.9421 0.744307L7.9425 5.71241C7.83463 5.80304 7.66904 5.85973 7.49997 5.85889C7.33093 5.85973 7.16537 5.80304 7.05747 5.71241L1.05788 0.744307H13.9421ZM10.7373 6.04021L14.0065 10.4987C14.0098 10.5032 14.0138 10.5066 14.0173 10.5106H0.982676C0.986133 10.5064 0.990176 10.5032 0.993457 10.4987L4.2627 6.04021C4.36286 5.9035 4.34388 5.70306 4.2198 5.59222C4.09597 5.48163 3.91441 5.50259 3.81422 5.63934L0.576914 10.0543V1.1424L6.7115 6.22189C6.9421 6.41149 7.22265 6.49494 7.49994 6.49578C7.77686 6.49513 8.05764 6.41168 8.28838 6.22189L14.423 1.1424V10.0543L11.1858 5.63934C11.0856 5.50262 10.9038 5.4816 10.7802 5.59222C10.6561 5.7028 10.6371 5.9035 10.7373 6.04021Z" fill="white"/>
</svg>
