<svg width="15" height="13" viewBox="0 0 15 13" fill="none" xmlns="http://www.w3.org/2000/svg">
<path d="M0.96875 5.90612H12.8138L8.27811 1.586C8.04061 1.35978 8.03141 0.983933 8.25763 0.746433C8.48355 0.509229 8.85939 0.499729 9.09719 0.725948L14.2771 5.66001C14.5012 5.88445 14.625 6.18251 14.625 6.49987C14.625 6.81693 14.5012 7.11529 14.2667 7.34953L9.09689 12.2735C8.982 12.383 8.83475 12.4374 8.6875 12.4374C8.53075 12.4374 8.374 12.3756 8.25733 12.253C8.03111 12.0155 8.04031 11.64 8.27781 11.4137L12.8325 7.09362H0.96875C0.641 7.09362 0.375 6.82762 0.375 6.49987C0.375 6.17212 0.641 5.90612 0.96875 5.90612Z" fill="white"/>
</svg>
