<svg width="15" height="15" viewBox="0 0 15 15" fill="none" xmlns="http://www.w3.org/2000/svg">
<path d="M10.7809 15C10.2967 15 9.81658 14.9144 9.34712 14.7438C7.2789 13.9925 5.35916 12.7688 3.79535 11.2051C2.23155 9.64129 1.00787 7.72152 0.256583 5.6533C0.0151578 4.98864 -0.0560893 4.30254 0.0448929 3.61397C0.139489 2.969 0.389322 2.34286 0.767412 1.80324C1.14717 1.26124 1.65346 0.810435 2.23152 0.499579C2.84796 0.168099 3.5208 0 4.23139 0C4.4524 0 4.6434 0.154417 4.68972 0.370502L5.42545 3.80393C5.45876 3.9594 5.41098 4.12117 5.29857 4.23361L4.04141 5.49074C5.22736 7.84863 7.15173 9.77301 9.50962 10.959L10.7668 9.70179C10.8792 9.58938 11.041 9.54166 11.1964 9.57491L14.6299 10.3106C14.846 10.357 15.0004 10.548 15.0004 10.769C15.0004 11.4796 14.8323 12.1524 14.5008 12.7689C14.1899 13.3469 13.7391 13.8532 13.1971 14.233C12.6575 14.6111 12.0314 14.8609 11.3864 14.9555C11.1842 14.9852 10.9822 15 10.7809 15ZM3.85688 0.957969C2.91956 1.06144 2.08762 1.55273 1.53516 2.34122C0.91392 3.22786 0.769053 4.31839 1.13771 5.33325C2.5821 9.30943 5.69099 12.4183 9.66717 13.8627C10.682 14.2314 11.7725 14.0865 12.6592 13.4653C13.4477 12.9128 13.939 12.0809 14.0425 11.1435L11.2494 10.545L9.93646 11.858C9.79675 11.9977 9.58447 12.0348 9.40571 11.9508C6.61705 10.6407 4.35976 8.38337 3.04966 5.59471C2.96567 5.41592 3.00276 5.20364 3.14247 5.06396L4.45539 3.75105L3.85688 0.957969Z" fill="white"/>
</svg>
