<svg width="22" height="17" viewBox="0 0 22 17" fill="none" xmlns="http://www.w3.org/2000/svg">
<path d="M4.79939 16.3259H2.97267V4.41385C2.97267 4.40952 2.97325 4.40553 2.97325 4.40128C2.97325 2.34475 4.49378 0.671635 6.36274 0.671635C8.15943 0.671635 9.63335 2.2182 9.74462 4.16492C9.21064 4.23115 8.71843 4.49924 8.36105 4.91849C8.00368 5.33774 7.80592 5.87909 7.80517 6.44018V6.84647C7.80517 6.91544 7.83143 6.98158 7.87817 7.03034C7.9249 7.07911 7.98829 7.1065 8.05439 7.1065H9.16338C9.27353 7.52255 9.62974 7.82986 10.0469 7.82986C10.4641 7.82986 10.8203 7.52272 10.9304 7.1065H11.9484C12.0145 7.1065 12.0778 7.07911 12.1246 7.03034C12.1713 6.98158 12.1976 6.91544 12.1976 6.84647V6.44018C12.1969 5.87657 11.9974 5.33295 11.6371 4.91297C11.2769 4.49299 10.7811 4.22604 10.2444 4.16301C10.1309 1.93009 8.43344 0.151489 6.36278 0.151489C4.22612 0.151489 2.48671 2.04537 2.47508 4.37788C2.47466 4.3839 2.47421 4.38993 2.47421 4.39604V16.3258H0.905462C0.839367 16.3258 0.775979 16.3532 0.729242 16.4019C0.682506 16.4507 0.65625 16.5168 0.65625 16.5858C0.65625 16.6548 0.682506 16.7209 0.729242 16.7697C0.775979 16.8184 0.839367 16.8458 0.905462 16.8458H4.79939C4.86549 16.8458 4.92888 16.8184 4.97561 16.7697C5.02235 16.7209 5.0486 16.6548 5.0486 16.5858C5.0486 16.5168 5.02235 16.4507 4.97561 16.4019C4.92888 16.3532 4.86549 16.3258 4.79939 16.3258V16.3259ZM10.0469 7.30989C9.97781 7.30873 9.91012 7.28952 9.85002 7.254C9.78991 7.21848 9.73931 7.1678 9.70284 7.10659H10.3909C10.3544 7.16779 10.3038 7.21847 10.2437 7.25399C10.1836 7.28951 10.1159 7.30872 10.0469 7.30989ZM11.6991 6.44018V6.58644H8.3036V6.44018C8.3036 5.97036 8.48247 5.51978 8.80086 5.18757C9.11925 4.85536 9.55108 4.66872 10.0014 4.66872C10.4516 4.66872 10.8835 4.85536 11.2018 5.18757C11.5202 5.51978 11.6991 5.97036 11.6991 6.44018Z" fill="#747474"/>
<path d="M19.9144 12.3082V10.5877C19.912 10.2975 19.7993 10.0202 19.6011 9.81658C19.4029 9.61298 19.1354 9.49971 18.8573 9.50161H14.297C14.1582 9.50088 14.0206 9.52897 13.8922 9.58423C13.7639 9.6395 13.6473 9.72084 13.5494 9.82353C13.5289 9.8452 13.5096 9.86748 13.491 9.89045C13.3911 9.76828 13.267 9.67023 13.1271 9.60309C12.9873 9.53595 12.8352 9.50132 12.6813 9.50161H8.09507C7.81696 9.49971 7.54947 9.61298 7.35129 9.81658C7.15311 10.0202 7.04041 10.2975 7.03792 10.5877V12.3132C6.73961 12.3407 6.46183 12.4832 6.25869 12.7128C6.05556 12.9424 5.94165 13.2427 5.93915 13.5552V16.5862C5.93915 16.6551 5.9654 16.7213 6.01214 16.77C6.05888 16.8188 6.12226 16.8462 6.18836 16.8462H8.12053C8.18663 16.8462 8.25002 16.8188 8.29675 16.77C8.34349 16.7213 8.36975 16.6551 8.36975 16.5862V16.2397L18.6609 16.243V16.5862C18.6609 16.6551 18.6871 16.7213 18.7339 16.77C18.7806 16.8188 18.844 16.8462 18.9101 16.8462H20.8422C20.9083 16.8462 20.9717 16.8188 21.0184 16.77C21.0652 16.7213 21.0914 16.6551 21.0914 16.5862V13.555C21.0886 13.2285 20.9642 12.9159 20.7446 12.6832C20.525 12.4506 20.2273 12.3161 19.9144 12.3082ZM13.9024 10.1904C13.9542 10.1364 14.0157 10.0936 14.0835 10.0646C14.1512 10.0356 14.2238 10.0209 14.297 10.0214H18.8573C19.0033 10.0194 19.1441 10.0778 19.2488 10.1839C19.3535 10.29 19.4137 10.4351 19.416 10.5874V12.4003C19.1942 12.4923 19.0038 12.6514 18.8693 12.8571C18.7347 13.0628 18.6622 13.3058 18.6609 13.5549V13.6567L13.7397 13.6554L13.7403 10.6136C13.7391 10.5354 13.7528 10.4577 13.7807 10.385C13.8085 10.3124 13.8499 10.2462 13.9024 10.1904ZM8.09507 10.0214H12.6812C12.8272 10.0194 12.968 10.0779 13.0728 10.184C13.1775 10.2902 13.2376 10.4353 13.2399 10.5877L13.241 13.6553L8.36975 13.6539V13.5551C8.36819 13.2912 8.28676 13.0346 8.13709 12.8219C7.98741 12.6092 7.77716 12.4513 7.53634 12.3707V10.5877C7.53867 10.4354 7.5988 10.2902 7.70354 10.1841C7.80828 10.078 7.94909 10.0195 8.09507 10.0215V10.0214ZM7.87132 16.3259H6.43757V13.555C6.4427 13.3602 6.52047 13.1751 6.65435 13.0392C6.78823 12.9033 6.96765 12.8273 7.15445 12.8273C7.34124 12.8273 7.52066 12.9033 7.65454 13.0392C7.78842 13.1751 7.8662 13.3602 7.87132 13.555V16.3259ZM8.36975 15.7194V14.1739L13.4901 14.1754H13.4905L18.6608 14.1769V15.7228L8.36975 15.7194ZM20.593 16.326H19.1593V13.555C19.1642 13.3601 19.2419 13.1748 19.3758 13.0387C19.5097 12.9027 19.6892 12.8265 19.8762 12.8265C20.0631 12.8265 20.2426 12.9027 20.3765 13.0387C20.5104 13.1748 20.5881 13.3601 20.593 13.555V16.326Z" fill="#747474"/>
</svg>
