<svg width="22" height="22" viewBox="0 0 22 22" fill="none" xmlns="http://www.w3.org/2000/svg">
<path d="M20.5981 0H1.40498C0.628749 0 0 0.628749 0 1.40343V20.5966C0 21.3713 0.628749 22 1.40498 22H20.5966C21.3713 22 22 21.3713 22 20.5966V1.40343C22.0016 0.627196 21.3728 0 20.5981 0ZM18.2492 13.4055C18.6513 13.8154 19.5238 14.5031 19.3655 15.2033C19.2195 15.846 18.2601 15.6116 17.3286 15.6489C16.2652 15.6939 15.6349 15.7172 14.9953 15.2033C14.6941 14.9596 14.5171 14.6708 14.2284 14.3479C13.966 14.056 13.6353 13.5328 13.1851 13.553C12.3763 13.5934 12.6293 14.7205 12.3421 15.489C7.84616 16.1969 6.04065 13.4195 4.44782 10.7244C3.67624 9.41881 2.56157 6.61506 2.56157 6.61506L5.74102 6.60419C5.74102 6.60419 6.76099 8.45939 7.03112 8.93755C7.26088 9.3443 7.51394 9.66721 7.77475 10.0305C7.99365 10.3317 8.33985 10.9216 8.71865 10.8735C9.33498 10.7943 9.44676 8.4035 9.06485 7.60243C8.91271 7.27796 8.54788 7.16463 8.17063 7.05441C8.29793 6.25023 11.7366 6.08256 12.2924 6.70666C13.0997 7.6133 11.7335 10.1376 12.8389 10.8735C14.3914 10.06 15.7172 6.65387 15.7172 6.65387L19.44 6.67716C19.44 6.67716 18.8578 8.51838 18.2477 9.33498C17.8922 9.81314 16.7123 10.8781 16.7589 11.6683C16.7961 12.294 17.7556 12.9025 18.2492 13.4055Z" fill="#4D4C4C"/>
</svg>
