<svg width="22" height="22" viewBox="0 0 22 22" fill="none" xmlns="http://www.w3.org/2000/svg">
<path d="M12.2154 11.0008L21.7483 1.46785C22.0839 1.13222 22.0839 0.588069 21.7483 0.252484C21.4127 -0.0831012 20.8685 -0.0831441 20.5329 0.252484L11 9.78543L1.46709 0.252484C1.13146 -0.0831441 0.587306 -0.0831441 0.251721 0.252484C-0.0838641 0.588112 -0.0839071 1.13227 0.251721 1.46785L9.78462 11.0008L0.251721 20.5337C-0.0839071 20.8693 -0.0839071 21.4135 0.251721 21.7491C0.419514 21.9169 0.63947 22.0007 0.859427 22.0007C1.07938 22.0007 1.2993 21.9169 1.46713 21.7491L11 12.2162L20.5329 21.7491C20.7007 21.9169 20.9206 22.0007 21.1406 22.0007C21.3606 22.0007 21.5805 21.9169 21.7483 21.7491C22.0839 21.4134 22.0839 20.8693 21.7483 20.5337L12.2154 11.0008Z" fill="white" fill-opacity="0.9"/>
</svg>
