<svg width="57" height="57" viewBox="0 0 57 57" fill="none" xmlns="http://www.w3.org/2000/svg">
<path d="M57 23.9032H54.9341L51.8551 25.5233C51.5086 25.3321 51.1481 25.17 50.7593 25.0726L46.8862 24.1034V23.6631C48.5997 22.4672 49.6452 20.4916 49.6452 18.3871V16.78C49.6452 13.2085 46.8467 10.2197 43.4072 10.1156C43.2326 10.1111 43.0606 10.1174 42.8878 10.1259L43.892 7.77501L39.0237 2.908L36.1538 4.77589C35.0634 4.16179 33.9102 3.6837 32.7125 3.34837L32.0037 0H24.9972L24.2884 3.34927C23.0907 3.6846 21.9366 4.16268 20.8471 4.77678L17.9772 2.9089L13.1129 7.77322L14.1001 10.1259C14.0624 10.1241 14.0264 10.1174 13.9887 10.1165C12.2281 10.0653 10.5699 10.7077 9.31026 11.9305C8.04884 13.1524 7.35484 14.7923 7.35484 16.5484V18.3871C7.35484 20.4916 8.39944 22.4663 10.1129 23.6622V24.1034L7.58647 24.735L3.00721 22.0645H0V41.1146L9.04451 44.129H10.806L11.026 43.3587L13.7984 45.0228C13.8437 46.5302 15.0526 47.7432 16.5587 47.7961C16.6117 49.2959 17.817 50.5012 19.3168 50.5542C19.3697 52.054 20.5751 53.2593 22.0748 53.3123C22.1296 54.8471 23.3865 56.0806 24.9339 56.0806C25.5085 56.0806 26.0719 55.9015 26.5455 55.5824L27.3598 56.3015C27.8702 56.7509 28.5274 57 29.2097 57H29.3799C30.9097 57 32.1545 55.7633 32.1738 54.2383C33.6871 54.219 34.9126 52.9935 34.9319 51.4803C36.446 51.461 37.6725 50.2337 37.69 48.7195C39.218 48.6836 40.4516 47.4352 40.4516 45.8986C40.4516 45.8061 40.4471 45.715 40.4377 45.623L57 37.3425V23.9032ZM47.8065 16.78V18.3871C47.8065 20.0189 46.9248 21.5433 45.5054 22.3653L45.0457 22.631L45.0493 25.5404L49.6425 26.6878L39.5323 32.0091V29.5325C39.5323 28.2966 39.0331 27.165 38.2156 26.3287L41.371 25.5404V22.6288L40.9122 22.3635C39.4937 21.5433 38.6129 20.0189 38.6129 18.3871V16.5484C38.6129 15.2946 39.1085 14.1221 40.0094 13.2489C40.9095 12.3763 42.1036 11.9058 43.352 11.9543C45.8079 12.0279 47.8065 14.193 47.8065 16.78ZM29.8862 31.2863L25.7244 29.9562C23.8278 29.3484 21.775 29.2577 19.8335 29.6878L19.3065 29.8045V29.5325C19.3065 28.2648 20.1661 27.1641 21.3952 26.8561L26.6613 25.5404V22.6288L26.2025 22.3635C24.784 21.5433 23.9032 20.0189 23.9032 18.3871V16.5484C23.9032 15.2946 24.3988 14.1221 25.2998 13.2489C26.1998 12.3763 27.4015 11.9058 28.6423 11.9543C31.0983 12.0279 33.0968 14.193 33.0968 16.78V18.3871C33.0968 20.0189 32.2151 21.5433 30.7957 22.3653L30.336 22.631L30.3396 25.5404L35.6048 26.8561C36.8339 27.1641 37.6936 28.2648 37.6936 29.5325V32.9774L37.4664 33.0968H36.903L31.2509 31.4816C30.8056 31.3555 30.3468 31.3039 29.8862 31.2863ZM19.5125 13.7598C21.239 10.4146 24.7139 8.27419 28.5 8.27419C32.2501 8.27419 35.7103 10.3858 37.4498 13.6857C37.0121 14.5633 36.7742 15.5352 36.7742 16.5484V18.3871C36.7742 20.4916 37.8188 22.4663 39.5323 23.6622V24.1034L35.8548 25.0241L32.1765 24.1034V23.6631C33.89 22.4672 34.9355 20.4916 34.9355 18.3871V16.78C34.9355 13.2085 32.137 10.2197 28.6975 10.1156C26.9378 10.064 25.2787 10.7068 24.019 11.9296C22.7585 13.1524 22.0645 14.7923 22.0645 16.5484V18.3871C22.0645 20.4916 23.1091 22.4663 24.8226 23.6622V24.1034L21.1452 25.0241L17.4668 24.1034V23.6631C19.1803 22.4672 20.2258 20.4916 20.2258 18.3871V16.78C20.2258 15.6982 19.9654 14.6711 19.5125 13.7598ZM15.2843 8.19968L18.2215 5.2625L20.8067 6.94499L21.3014 6.64153C22.5408 5.88199 23.8803 5.32579 25.2823 4.99046L25.8479 4.85489L26.4876 1.83871H30.5133L31.1512 4.854L31.7168 4.98912C33.1188 5.3249 34.4583 5.88109 35.6977 6.64063L36.1924 6.94409L38.7777 5.2616L41.7112 8.19608L40.6684 10.6377C39.9587 10.9429 39.3006 11.3725 38.7278 11.9278C38.6901 11.9646 38.6578 12.0041 38.621 12.0418C36.455 8.59875 32.6259 6.43548 28.5 6.43548C24.3445 6.43548 20.5046 8.61895 18.344 12.0971C17.7658 11.4919 17.0781 11.0017 16.3159 10.6592L15.2843 8.19968ZM11.9516 25.5404V22.6288L11.4928 22.3635C10.0743 21.5433 9.19355 20.0189 9.19355 18.3871V16.5484C9.19355 15.2946 9.68914 14.1221 10.5901 13.2489C11.4901 12.3763 12.6869 11.9058 13.9326 11.9543C16.3886 12.0279 18.3871 14.193 18.3871 16.78V18.3871C18.3871 20.0189 17.5055 21.5433 16.086 22.3653L15.6263 22.631L15.6299 25.5404L18.7844 26.3287C17.9669 27.165 17.4677 28.2966 17.4677 29.5325V30.2135L14.6001 30.8509L14.6747 30.5905L14.7097 28.8914L9.86107 26.0629L11.9516 25.5404ZM1.83871 23.9032H2.50892L9.12083 27.7598L5.78457 41.1043L1.83871 39.7886V23.9032ZM9.34258 42.2903L7.53305 41.6874L10.7741 28.7245L12.871 29.9473V30.2099L9.4198 42.2903H9.34258ZM15.629 44.9371C15.629 44.6659 15.7386 44.4002 15.9307 44.208L17.5467 42.592C17.7389 42.3999 18.0046 42.2903 18.2758 42.2903C18.8441 42.2903 19.3065 42.7527 19.3065 43.321C19.3065 43.5921 19.1969 43.8579 19.0048 44.05L17.3887 45.6661C17.1966 45.8582 16.9309 45.9677 16.6597 45.9677C16.0914 45.9677 15.629 45.5054 15.629 44.9371ZM18.3871 47.6951C18.3871 47.424 18.4966 47.1582 18.6888 46.9661L20.3048 45.3501C20.4969 45.1579 20.7627 45.0484 21.0338 45.0484C21.6021 45.0484 22.0645 45.5108 22.0645 46.0791C22.0645 46.3502 21.955 46.616 21.7629 46.8081L20.1468 48.4241C19.9547 48.6163 19.6889 48.7258 19.4178 48.7258C18.8495 48.7258 18.3871 48.2634 18.3871 47.6951ZM21.1452 50.4532C21.1452 50.1821 21.2547 49.9163 21.4468 49.7242L23.0629 48.1081C23.255 47.916 23.5208 47.8065 23.7919 47.8065C24.3602 47.8065 24.8226 48.2688 24.8226 48.8371C24.8226 49.1083 24.713 49.374 24.5209 49.5662L22.9049 51.1822C22.7127 51.3743 22.447 51.4839 22.1758 51.4839C21.6075 51.4839 21.1452 51.0215 21.1452 50.4532ZM24.9339 54.2419C24.3656 54.2419 23.9032 53.7796 23.9032 53.2113C23.9032 52.9401 24.0128 52.6744 24.2049 52.4822L25.8209 50.8662C26.0131 50.674 26.2788 50.5645 26.55 50.5645C27.1183 50.5645 27.5806 51.0269 27.5806 51.5952C27.5806 51.8663 27.4711 52.1321 27.279 52.3242L25.6629 53.9403C25.4708 54.1324 25.205 54.2419 24.9339 54.2419ZM29.3799 55.1613H29.2097C28.9754 55.1613 28.7509 55.076 28.5763 54.9211L27.8886 54.3147L28.579 53.6242C28.8255 53.3778 29.0167 53.0847 29.1581 52.77L29.994 53.4658C30.2126 53.648 30.3387 53.9165 30.3387 54.2024C30.3387 54.7312 29.9087 55.1613 29.3799 55.1613ZM37.6244 46.8871H37.4655C37.2348 46.8871 37.0094 46.8054 36.833 46.6573L31.8475 42.5027L30.6696 43.9158L35.511 47.9497C35.7287 48.1319 35.8548 48.4004 35.8548 48.6863C35.8548 49.2151 35.4248 49.6452 34.896 49.6452H34.6953C34.4722 49.6452 34.254 49.5662 34.0821 49.4225L29.0885 45.2616L27.9106 46.6748L32.752 50.7091C32.9706 50.89 33.0968 51.1584 33.0968 51.4444C33.0968 51.9732 32.6667 52.4032 32.1379 52.4032C31.7851 52.4032 31.4412 52.278 31.1705 52.0531L29.1186 50.3428C28.6665 49.4189 27.7378 48.7747 26.6501 48.7361C26.5971 47.2363 25.3918 46.031 23.892 45.9781C23.839 44.4783 22.6337 43.273 21.1339 43.22C21.0801 41.6852 19.8231 40.4516 18.2758 40.4516C17.5203 40.4516 16.7809 40.7578 16.2467 41.292L14.6307 42.908C14.5342 43.0045 14.4543 43.1141 14.373 43.2227L11.5489 41.5281L14.0247 32.8633L20.2312 31.4834C21.8594 31.1194 23.576 31.1984 25.1637 31.7065L26.5181 32.1397L21.9267 34.4354C20.8776 34.9611 20.2258 36.0164 20.2258 37.1899V37.3717C20.2258 39.0699 21.6075 40.4516 23.3057 40.4516C23.8637 40.4516 24.4127 40.2999 24.8899 40.0121L28.3133 37.9593C29.001 37.5472 29.9239 37.6374 30.5178 38.1716L38.2857 45.1624C38.4935 45.3509 38.6129 45.6185 38.6129 45.8986C38.6129 46.444 38.1698 46.8871 37.6244 46.8871ZM55.1613 36.2059L39.6728 43.9508C39.6225 43.8974 39.57 43.8467 39.5148 43.7973L31.7483 36.8065C31.0677 36.1924 30.1879 35.8548 29.2712 35.8548C28.601 35.8548 27.9429 36.0371 27.3665 36.3828L23.9418 38.4365C23.7497 38.5523 23.5302 38.6129 23.3057 38.6129C22.6207 38.6129 22.0645 38.0567 22.0645 37.3717V37.1899C22.0645 36.7163 22.3276 36.2916 22.7504 36.0802L27.8787 33.5161C28.7563 33.0766 29.7982 32.9783 30.7441 33.2503L36.5215 34.9005L37.9207 34.9355L55.1613 25.8613V36.2059Z" fill="#6D7A93"/>
</svg>
