<svg width="57" height="57" viewBox="0 0 57 57" fill="none" xmlns="http://www.w3.org/2000/svg">
<path d="M41.6157 26.6C39.0293 26.6 36.9321 24.4735 36.9321 21.8499C36.9321 19.2268 39.0293 17.0999 41.6157 17.0999C44.2026 17.0999 46.2994 19.2268 46.2994 21.8499C46.2965 24.4724 44.2015 26.5971 41.6157 26.6ZM41.6157 19C40.0639 19 38.8057 20.2761 38.8057 21.8499C38.8057 23.4245 40.0639 24.6999 41.6157 24.6999C43.1683 24.6999 44.4258 23.4245 44.4258 21.8499C44.4258 20.2761 43.1683 19 41.6157 19Z" fill="#6D7A93"/>
<path d="M15.3877 26.6C12.8012 26.6 10.704 24.4735 10.704 21.8499C10.704 19.2268 12.8012 17.0999 15.3877 17.0999C17.9745 17.0999 20.0713 19.2268 20.0713 21.8499C20.0684 24.4724 17.9734 26.5971 15.3877 26.6ZM15.3877 19C13.8358 19 12.5776 20.2761 12.5776 21.8499C12.5776 23.4245 13.8358 24.6999 15.3877 24.6999C16.9402 24.6999 18.1977 23.4245 18.1977 21.8499C18.1977 20.2761 16.9402 19 15.3877 19Z" fill="#6D7A93"/>
<path d="M47.2362 32.7202L56.1659 24.4876C57.2105 23.5014 57.2838 21.8477 56.3301 20.7708C55.3764 19.694 53.7477 19.5903 52.6694 20.5381L45.9435 26.6H36.4886L29.4383 35.34V11.4H38.8057V15.2H54.2399L51.9921 9.49981L54.2399 3.8H43.4893V0H27.5651V35.34L20.5156 26.6H11.0606L4.33473 20.537C3.25571 19.5873 1.6251 19.6903 0.670697 20.7679C-0.284437 21.8458 -0.210768 23.5007 0.83636 24.4876L9.76755 32.7202V55.0998H0.40021V57H56.6032V55.0998H47.2362V32.7202ZM43.4893 5.69981H51.4727L49.9744 9.49981L51.4727 13.2998H40.6789V11.4H43.4893V5.69981ZM29.4383 1.89981H41.6157V9.49981H29.4383V1.89981ZM19.1345 55.0998H16.3245V41.8H14.4509V55.0998H11.6408V31.8802L2.09753 23.0851C1.82888 22.8316 1.78123 22.4179 1.98428 22.1075C2.10303 21.9269 2.29288 21.8072 2.50509 21.7793C2.71731 21.751 2.93135 21.8176 3.09152 21.9614L10.3485 28.4998H19.6275L26.5927 37.1339C26.8628 37.461 26.8203 37.948 26.4981 38.2223C26.1752 38.4959 25.6947 38.4527 25.425 38.1256L19.1345 30.6851V55.0998ZM35.9956 55.0998H21.0081V35.8151L24.0059 39.3586C24.8749 40.3853 26.3625 40.5916 27.4712 39.8392C27.5061 39.8154 27.5361 39.7853 27.5702 39.7593V47.4998H29.4434V39.7612C29.4786 39.7883 29.5098 39.8203 29.5472 39.8452C30.6551 40.5923 32.1384 40.3853 33.0056 39.3616L35.9956 35.8151V55.0998ZM45.3626 55.0998H42.5525V41.8H40.6789V55.0998H37.8689V30.6851L31.5791 38.1286C31.3273 38.4245 30.897 38.4828 30.5778 38.2643C30.3989 38.145 30.2787 37.9535 30.2479 37.7387C30.2157 37.5235 30.2747 37.3045 30.411 37.1365L37.3763 28.4998H46.6556L53.9111 21.9584C54.0702 21.8124 54.2853 21.7451 54.4976 21.7752C54.7131 21.8027 54.9051 21.925 55.0231 22.1097C55.2247 22.4186 55.1752 22.8305 54.9058 23.0814L45.3626 31.8802V55.0998Z" fill="#6D7A93"/>
</svg>
