<svg width="45" height="69" viewBox="0 0 45 69" fill="none" xmlns="http://www.w3.org/2000/svg">
<path d="M0 10.0412C0 23.8217 0 66.1604 0 66.1604C0 67.3938 0.999883 68.3936 2.23327 68.3936H42.7667C44.0001 68.3936 45 67.3938 45 66.1604V10.8875C45 9.65413 44.0001 8.65425 42.7667 8.65425H41.315V2.23377C41.315 1.56458 41.0152 0.930841 40.4975 0.506663C39.9799 0.0822541 39.2996 -0.0883845 38.6438 0.0437971L1.79528 7.4135C0.585606 7.65552 0 8.80808 0 10.0412ZM36.8485 8.65425H18.3661L36.8485 4.95777V8.65425ZM40.5335 63.9271H4.46631V13.1208H40.5332V63.9271H40.5335Z" fill="#6D7A93"/>
<path d="M22.2765 54.4919C30.7732 54.4919 37.686 47.5793 37.686 39.0824C37.686 30.5854 30.7734 23.6729 22.2765 23.6729C13.7796 23.6729 6.867 30.5854 6.867 39.0824C6.867 47.5793 13.7798 54.4919 22.2765 54.4919ZM11.2624 33.1644H14.108C13.7851 34.5566 13.5744 36.0558 13.4938 37.6309H9.85744C10.0433 36.0314 10.5296 34.5226 11.2624 33.1644ZM34.6958 37.6307H31.0595C30.9789 36.0555 30.7679 34.5564 30.4453 33.1641H33.2909C34.0234 34.5226 34.51 36.0314 34.6958 37.6307ZM33.2906 45.0004H30.4451C30.7679 43.6081 30.9786 42.109 31.0592 40.5338H34.6956C34.51 42.1334 34.0234 43.6422 33.2906 45.0004ZM20.8251 47.9038V51.1461C19.8625 50.5711 18.9326 49.4519 18.1722 47.9038H20.8251ZM17.1009 45.0004C16.7417 43.6647 16.4939 42.1649 16.4007 40.5338H20.8251V45.0004H17.1009ZM23.7282 51.1461V47.9038H26.3811C25.6207 49.4519 24.6908 50.5711 23.7282 51.1461ZM23.7282 45.0004V40.5338H28.1526C28.0593 42.1647 27.8116 43.6647 27.4523 45.0004H23.7282ZM28.1526 37.6307H23.7282V33.1641H27.4523C27.8116 34.5 28.0593 35.9998 28.1526 37.6307ZM23.7282 30.261V27.0186C24.6908 27.5936 25.6207 28.7128 26.3811 30.261H23.7282ZM20.8251 27.0186V30.261H18.1722C18.9326 28.7128 19.8625 27.5936 20.8251 27.0186ZM20.8251 33.1644V37.6309H16.4007C16.4939 36 16.7417 34.5 17.1009 33.1644H20.8251ZM13.4938 40.5341C13.5744 42.1092 13.7854 43.6083 14.108 45.0006H11.2624C10.5296 43.6424 10.043 42.1336 9.85721 40.5341H13.4938ZM13.4206 47.9038H15.0022C15.2739 48.5939 15.5772 49.2408 15.909 49.8402C14.9994 49.2997 14.1628 48.6489 13.4206 47.9038ZM28.6443 49.8402C28.9759 49.2408 29.2794 48.5939 29.5511 47.9038H31.1327C30.3903 48.6489 29.5539 49.2997 28.6443 49.8402ZM31.1327 30.261H29.5511C29.2794 29.5711 28.9761 28.924 28.6443 28.3245C29.5539 28.865 30.3903 29.5158 31.1327 30.261ZM15.9088 28.3245C15.5772 28.924 15.2737 29.5708 15.0019 30.261H13.4204C14.1628 29.5158 14.9994 28.865 15.9088 28.3245Z" fill="#6D7A93"/>
</svg>
