<svg width="57" height="57" viewBox="0 0 57 57" fill="none" xmlns="http://www.w3.org/2000/svg">
<path d="M37.9629 50.3203L46.8691 57V50.3203H57V20.1504H36.8496V0H0V30.1699H10.1309V36.8496L19.0371 30.1699H20.1504V50.3203H37.9629ZM53.6602 46.9805H43.5293V50.3203L39.0762 46.9805H23.4902V23.4902H53.6602V46.9805ZM17.9238 26.8301L13.4707 30.1699V26.8301H3.33984V3.33984H33.5098V20.1504H26.1921L18.4805 4.7271L10.307 21.0736L13.2941 22.5674L15.3376 18.4805H21.6233L22.4583 20.1504H20.1504V26.8301H17.9238ZM19.9534 15.1406H17.0075L18.4805 12.1948L19.9534 15.1406Z" fill="#6D7A93"/>
<path d="M36.1777 37.8968C34.3869 39.4049 32.6961 40.1895 31.8398 40.1895V43.5293C33.9916 43.5293 36.5765 41.9546 38.5195 40.286C40.4626 41.9546 43.0475 43.5293 45.1992 43.5293V40.1895C44.3429 40.1895 42.6522 39.4049 40.8613 37.8968C41.8311 36.7178 42.8513 35.1745 43.2971 33.5098H46.8691V30.1699H40.1895V26.8301H36.8496V30.1699H30.1699V33.5098H33.742C34.1877 35.1745 35.208 36.7178 36.1777 37.8968ZM38.5195 35.4819C37.9929 34.8044 37.5737 34.1325 37.2871 33.5085H39.752C39.4654 34.1325 39.0462 34.8044 38.5195 35.4819Z" fill="#6D7A93"/>
</svg>
