<svg width="46" height="57" viewBox="0 0 46 57" fill="none" xmlns="http://www.w3.org/2000/svg">
<path d="M44.687 9.22976L23.8166 0.170207C23.2938 -0.05668 22.7061 -0.0567913 22.1834 0.170207L1.31302 9.22976C0.518139 9.57488 0 10.3862 0 11.2861V22.2992C0 37.4636 8.76651 51.1043 22.1952 56.8349C22.711 57.055 23.2889 57.055 23.8048 56.8349C37.2333 51.1044 46 37.4637 46 22.2992V11.2861C46 10.3862 45.482 9.57488 44.687 9.22976ZM41.7407 22.2992C41.7407 35.1905 34.5 47.0578 23 52.355C11.8073 47.1992 4.25926 35.5398 4.25926 22.2992V12.7726L23 4.63736L41.7407 12.7726V22.2992ZM20.6461 29.8043L29.7997 20.2342C30.6313 19.3647 31.9797 19.3646 32.8114 20.2342C33.6431 21.1038 33.643 22.5136 32.8113 23.383L22.152 34.5275C21.3201 35.3972 19.9718 35.3969 19.1403 34.5275L13.1886 28.305C12.3569 27.4354 12.3569 26.0256 13.1886 25.1562C14.0203 24.2867 15.3687 24.2866 16.2003 25.1562L20.6461 29.8043Z" fill="#6D7A93"/>
</svg>
