<svg width="57" height="57" viewBox="0 0 57 57" fill="none" xmlns="http://www.w3.org/2000/svg">
<path d="M8.35201 8.35198C19.4869 -2.7831 37.5113 -2.78488 48.648 8.35198C59.7832 19.4871 59.7848 37.5113 48.648 48.6481C37.5131 59.7831 19.4887 59.7848 8.35201 48.6481C-2.78319 37.513 -2.78475 19.4887 8.35201 8.35198ZM9.54291 44.5863C10.8742 43.3959 12.2983 42.3423 13.7993 41.4344C12.8072 38.0073 12.2194 34.236 12.0805 30.3158H3.70328C4.08205 35.5999 6.11235 40.5568 9.54291 44.5863ZM53.2968 30.3158H44.9196C44.7807 34.236 44.1929 38.0073 43.2008 41.4344C44.7018 42.3423 46.1259 43.3959 47.4572 44.5863C50.8877 40.5568 52.9179 35.5999 53.2968 30.3158ZM47.4571 12.4137C46.1258 13.6042 44.7017 14.6577 43.2007 15.5656C44.1928 18.9927 44.7806 22.764 44.9195 26.6842H53.2968C52.9179 21.4002 50.8877 16.4434 47.4571 12.4137ZM30.3157 15.9409C33.2771 15.7291 36.1324 14.9998 38.7795 13.7965C37.24 9.83211 34.4019 5.07726 30.3157 3.89893V15.9409ZM30.3157 19.5793V26.6844H41.2865C41.1608 23.3681 40.6909 20.1837 39.9095 17.2701C36.9013 18.5852 33.6661 19.3705 30.3157 19.5793ZM30.3157 30.3158V37.4209C33.6661 37.6297 36.9013 38.415 39.9095 39.73C40.6909 36.8164 41.1608 33.632 41.2865 30.3158H30.3157ZM30.3157 41.0592V53.1011C34.4017 51.9228 37.2398 47.1685 38.7795 43.2037C36.1324 42.0004 33.2771 41.271 30.3157 41.0592ZM26.6843 41.0592C23.7229 41.271 20.8675 42.0004 18.2204 43.2037C19.7601 47.1682 22.5981 51.9228 26.6843 53.1011V41.0592ZM26.6843 37.4209V30.3158H15.7135C15.8392 33.632 16.309 36.8164 17.0905 39.73C20.0987 38.415 23.3339 37.6297 26.6843 37.4209ZM26.6843 26.6844V19.5793C23.3339 19.3705 20.0987 18.5852 17.0905 17.2701C16.309 20.1837 15.8392 23.3681 15.7135 26.6844H26.6843ZM26.6843 15.9409V3.89904C22.5981 5.07737 19.76 9.83222 18.2204 13.7966C20.8675 14.9998 23.7229 15.7291 26.6843 15.9409ZM18.5283 5.71187C16.204 6.7297 14.0356 8.10982 12.0917 9.82221C13.017 10.638 13.9933 11.3778 15.0128 12.0393C15.9182 9.79762 17.0747 7.61915 18.5283 5.71187ZM41.9873 12.0393C43.0068 11.3778 43.983 10.638 44.9084 9.82221C42.9645 8.10982 40.7961 6.7297 38.4718 5.71187C39.9254 7.61937 41.0819 9.79785 41.9873 12.0393ZM41.9872 44.9609C41.0819 47.2024 39.9252 49.381 38.4716 51.2883C40.796 50.2705 42.9644 48.8903 44.9083 47.1779C43.983 46.3621 43.0067 45.6224 41.9872 44.9609ZM15.0128 44.9609C13.9933 45.6224 13.017 46.3621 12.0917 47.1778C14.0356 48.8902 16.204 50.2703 18.5283 51.2882C17.0748 49.3811 15.9182 47.2025 15.0128 44.9609ZM12.0803 26.6844C12.2193 22.7641 12.8071 18.9927 13.7992 15.5657C12.2982 14.6578 10.8742 13.6043 9.5428 12.4138C6.11224 16.4434 4.08205 21.4002 3.70317 26.6844H12.0803Z" fill="#6D7A93"/>
</svg>
